<?xml version="1.0" encoding="UTF-8"?>
<!DOCTYPE svg PUBLIC "-//W3C//DTD SVG 1.1//EN" "http://www.w3.org/Graphics/SVG/1.1/DTD/svg11.dtd">
<!-- Creator: CorelDRAW -->
<svg xmlns="http://www.w3.org/2000/svg" xml:space="preserve" width="15.7677mm" height="13.9459mm" style="shape-rendering:geometricPrecision; text-rendering:geometricPrecision; image-rendering:optimizeQuality; fill-rule:evenodd; clip-rule:evenodd"
viewBox="0 0 2.95187 2.61081"
 xmlns:xlink="http://www.w3.org/1999/xlink">
 <defs>
  <style type="text/css">
   <![CDATA[
    .str0 {stroke:#FEFEFE;stroke-width:0.0142654}
    .fil3 {fill:none;fill-rule:nonzero}
    .fil1 {fill:#E41D2C}
    .fil0 {fill:#FAB62A}
    .fil2 {fill:#FEFEFE}
    .fil4 {fill:#0060AA;fill-rule:nonzero}
    .fil5 {fill:#F7A82D;fill-rule:nonzero}
   ]]>
  </style>
 </defs>
 <g id="Слой_x0020_1">
  <metadata id="CorelCorpID_0Corel-Layer"/>
  <g id="_237347416">
   <polygon id="_237430800" class="fil0" points="2.16057,2.61081 2.20058,2.60977 2.24008,2.60688 2.27878,2.60194 2.31723,2.59513 2.35462,2.5865 2.3915,2.57603 2.42759,2.56375 2.4629,2.5499 2.4974,2.53421 2.53088,2.51719 2.5633,2.49836 2.59494,2.47823 2.62527,2.45653 2.65457,2.43353 2.68282,2.40919 2.70975,2.38332 2.73565,2.35636 2.75995,2.32813 2.78297,2.29883 2.80467,2.26852 2.8248,2.23686 2.84365,2.20444 2.86063,2.17096 2.87632,2.13642 2.89019,2.10115 2.90249,2.06504 2.91295,2.02818 2.92158,1.99077 2.92838,1.95234 2.93334,1.91364 2.9362,1.87414 2.93727,1.83414 2.9362,1.79437 2.93334,1.75517 2.92838,1.71645 2.92158,1.67853 2.91295,1.64114 2.90249,1.60454 2.89019,1.56845 2.87632,1.5334 2.86063,1.49914 2.84365,1.46567 2.8248,1.43351 2.80467,1.40185 2.78297,1.37152 2.75995,1.34248 2.73565,1.31425 2.70975,1.28731 2.68282,1.26168 2.65457,1.23737 2.62527,1.21436 2.59494,1.19264 2.5633,1.17252 2.53088,1.15396 2.4974,1.13695 2.4629,1.12126 2.42759,1.10739 2.3915,1.0951 2.35462,1.08464 2.31723,1.07601 2.27878,1.06921 2.24008,1.06425 2.20058,1.06137 2.16057,1.06032 2.12083,1.06137 2.08133,1.06425 2.04263,1.06921 2.00444,1.07601 1.96705,1.08464 1.93019,1.0951 1.89434,1.10739 1.85905,1.12126 1.82479,1.13695 1.79158,1.15396 1.75916,1.17252 1.72778,1.19264 1.69743,1.21436 1.66815,1.23737 1.64017,1.26168 1.61323,1.28731 1.5876,1.31425 1.56328,1.34248 1.54027,1.37152 1.51884,1.40185 1.49867,1.43351 1.48012,1.46567 1.46288,1.49914 1.44743,1.5334 1.43358,1.56845 1.42156,1.60454 1.41108,1.64114 1.40247,1.67853 1.39567,1.71645 1.39069,1.75517 1.38781,1.79437 1.38676,1.83414 1.38781,1.87414 1.39069,1.91364 1.39567,1.95234 1.40247,1.99077 1.41108,2.02818 1.42156,2.06504 1.43358,2.10115 1.44743,2.13642 1.46288,2.17096 1.48012,2.20444 1.49867,2.23686 1.51884,2.26852 1.54027,2.29883 1.56328,2.32813 1.5876,2.35636 1.61323,2.38332 1.64017,2.40919 1.66815,2.43353 1.69743,2.45653 1.72778,2.47823 1.75916,2.49836 1.79158,2.51719 1.82479,2.53421 1.85905,2.5499 1.89434,2.56375 1.93019,2.57603 1.96705,2.5865 2.00444,2.59513 2.04263,2.60194 2.08133,2.60688 2.12083,2.60977 2.16057,2.61081 "/>
   <polygon id="_237431568" class="fil1" points="1.12343,2.61081 1.16317,2.60977 1.20268,2.60688 1.24137,2.60194 1.27954,2.59513 1.31695,2.5865 1.35381,2.57603 1.38964,2.56375 1.42495,2.5499 1.45921,2.53421 1.4924,2.51719 1.52485,2.49836 1.55622,2.47823 1.58657,2.45653 1.61585,2.43353 1.64382,2.40919 1.67078,2.38332 1.6964,2.35636 1.7207,2.32813 1.74373,2.29883 1.76517,2.26852 1.78531,2.23686 1.80386,2.20444 1.82112,2.17096 1.83655,2.13642 1.85042,2.10115 1.86244,2.06504 1.87291,2.02818 1.88154,1.99077 1.88833,1.95234 1.89331,1.91364 1.8962,1.87414 1.89723,1.83414 1.8962,1.79437 1.89331,1.75517 1.88833,1.71645 1.88154,1.67853 1.87291,1.64114 1.86244,1.60454 1.85042,1.56845 1.83655,1.5334 1.82112,1.49914 1.80386,1.46567 1.78531,1.43351 1.76517,1.40185 1.74373,1.37152 1.7207,1.34248 1.6964,1.31425 1.67078,1.28731 1.64382,1.26168 1.61585,1.23737 1.58657,1.21436 1.55622,1.19264 1.52485,1.17252 1.4924,1.15396 1.45921,1.13695 1.42495,1.12126 1.38964,1.10739 1.35381,1.0951 1.31695,1.08464 1.27954,1.07601 1.24137,1.06921 1.20268,1.06425 1.16317,1.06137 1.12343,1.06032 1.08342,1.06137 1.04392,1.06425 1.00521,1.06921 0.966772,1.07601 0.929386,1.08464 0.892524,1.0951 0.856412,1.10739 0.821104,1.12126 0.786601,1.13695 0.753128,1.15396 0.720703,1.17252 0.689046,1.19264 0.658718,1.21436 0.629438,1.23737 0.601188,1.26168 0.574248,1.28731 0.548357,1.31425 0.524039,1.34248 0.501031,1.37152 0.479314,1.40185 0.459189,1.43351 0.440356,1.46567 0.423357,1.49914 0.407669,1.5334 0.393815,1.56845 0.381516,1.60454 0.371051,1.64114 0.36242,1.67853 0.355624,1.71645 0.350663,1.75517 0.34778,1.79437 0.346732,1.83414 0.34778,1.87414 0.350663,1.91364 0.355624,1.95234 0.36242,1.99077 0.371051,2.02818 0.381516,2.06504 0.393815,2.10115 0.407669,2.13642 0.423357,2.17096 0.440356,2.20444 0.459189,2.23686 0.479314,2.26852 0.501031,2.29883 0.524039,2.32813 0.548357,2.35636 0.574248,2.38332 0.601188,2.40919 0.629438,2.43353 0.658718,2.45653 0.689046,2.47823 0.720703,2.49836 0.753128,2.51719 0.786601,2.53421 0.821104,2.5499 0.856412,2.56375 0.892524,2.57603 0.929386,2.5865 0.966772,2.59513 1.00521,2.60194 1.04392,2.60688 1.08342,2.60977 1.12343,2.61081 "/>
   <polygon id="_237431112" class="fil0" points="1.55126,1.35767 1.96314,1.35767 1.96314,1.31556 1.58681,1.31556 1.55126,1.35767 "/>
   <polygon id="_237266936" class="fil0" points="1.48954,1.45129 1.96314,1.45129 1.96314,1.40917 1.51438,1.40917 1.48954,1.45129 "/>
   <polygon id="_483495408" class="fil0" points="1.44352,1.54463 1.96314,1.54463 1.96314,1.50253 1.46183,1.50253 1.44352,1.54463 "/>
   <polygon id="_483494928" class="fil0" points="1.41186,1.63826 1.96314,1.63826 1.96314,1.59615 1.42495,1.59615 1.41186,1.63826 "/>
   <polygon id="_483495240" class="fil0" points="1.43017,2.09067 1.96443,2.09067 1.96443,2.04857 1.41709,2.04857 1.43017,2.09067 "/>
   <polygon id="_483495816" class="fil0" points="1.46966,2.18429 1.96443,2.18429 1.96443,2.14219 1.45005,2.14219 1.46966,2.18429 "/>
   <polygon id="_237266056" class="fil0" points="1.52511,2.27765 1.96443,2.27765 1.96443,2.23555 1.49867,2.23555 1.52511,2.27765 "/>
   <polygon id="_234756248" class="fil0" points="1.60147,2.37126 1.96443,2.37126 1.96443,2.32891 1.56459,2.32891 1.60147,2.37126 "/>
   <polygon id="_237266224" class="fil0" points="1.39331,1.73162 1.96314,1.73162 1.96314,1.68952 1.4014,1.68952 1.39331,1.73162 "/>
   <polygon id="_483495552" class="fil0" points="1.74061,1.99733 1.9579,1.99733 1.9579,1.95522 1.74843,1.95522 1.74061,1.99733 "/>
   <polygon id="_483495504" class="fil0" points="1.75785,1.90396 1.9579,1.90396 1.9579,1.86158 1.76569,1.86158 1.75785,1.90396 "/>
   <polygon id="_237274184" class="fil0" points="1.37892,1.86158 1.43542,1.86158 1.43542,1.90396 1.38154,1.90396 1.37892,1.86158 "/>
   <polygon id="_483495744" class="fil2" points="1.27353,1.8106 1.26987,1.81034 1.26621,1.80982 1.26281,1.80929 1.25942,1.80877 1.25627,1.80824 1.25289,1.80772 1.24948,1.8072 1.24581,1.80667 1.24216,1.80617 1.23796,1.80589 1.23327,1.80562 1.2283,1.80536 1.2228,1.80536 1.21679,1.80562 1.20998,1.80617 1.20241,1.80667 1.19717,1.80746 1.19219,1.80824 1.18775,1.80982 1.18384,1.81139 1.18017,1.81321 1.17677,1.8153 1.17416,1.81792 1.1718,1.82026 1.17023,1.82315 1.16892,1.82603 1.1684,1.82917 1.1684,1.83232 1.16918,1.83571 1.17023,1.8391 1.17233,1.8425 1.17495,1.84589 1.18017,1.85085 1.18644,1.85478 1.19376,1.85819 1.20161,1.86107 1.20998,1.86368 1.21861,1.86656 1.22724,1.86971 1.23561,1.87311 1.24347,1.87753 1.25079,1.88303 1.25732,1.88957 1.26281,1.89767 1.267,1.90762 1.26962,1.91939 1.27065,1.93351 1.26962,1.94998 1.26777,1.96226 1.26464,1.97299 1.26045,1.98295 1.25521,1.99156 1.24922,1.99914 1.2424,2.00568 1.23508,2.01144 1.22698,2.0164 1.21861,2.02033 1.20998,2.02374 1.20108,2.02634 1.19195,2.02844 1.18304,2.03001 1.17443,2.0308 1.16578,2.03132 1.15767,2.03157 1.14644,2.03157 1.13597,2.03132 1.12684,2.03132 1.11819,2.03104 1.11034,2.0308 1.10329,2.03026 1.09701,2.02973 1.09099,2.02896 1.0855,2.02844 1.08054,2.02739 1.07556,2.02661 1.07112,2.0253 1.06669,2.02427 1.06249,2.02269 1.0583,2.02112 1.05386,2.01953 1.06562,1.96176 1.068,1.96226 1.07086,1.96305 1.07451,1.96412 1.07897,1.96514 1.08367,1.96619 1.08891,1.96726 1.09466,1.96853 1.10093,1.9696 1.10748,1.97065 1.11427,1.97168 1.12133,1.97248 1.12865,1.97327 1.13625,1.97353 1.14382,1.97378 1.1514,1.97378 1.159,1.97353 1.16656,1.97196 1.17259,1.96986 1.17731,1.96698 1.18096,1.96331 1.18358,1.95966 1.18566,1.95547 1.18699,1.95129 1.18802,1.94736 1.18854,1.93978 1.18618,1.93326 1.18175,1.92802 1.17519,1.92357 1.16735,1.91965 1.15821,1.91572 1.14799,1.91205 1.13781,1.9079 1.12736,1.90318 1.11742,1.89767 1.10827,1.89088 1.09988,1.88277 1.09334,1.87283 1.08865,1.86107 1.08629,1.84694 1.08655,1.8302 1.08786,1.82 1.08969,1.81034 1.09232,1.80145 1.09544,1.79308 1.09962,1.78524 1.10433,1.77844 1.10982,1.77189 1.11635,1.76614 1.12395,1.76118 1.1323,1.75699 1.14172,1.75307 1.1522,1.75019 1.16396,1.74783 1.17677,1.74602 1.19088,1.74497 1.20633,1.74469 1.216,1.74469 1.2249,1.74497 1.23298,1.74523 1.24032,1.74549 1.24686,1.74602 1.25289,1.74654 1.25809,1.74706 1.26281,1.74757 1.26726,1.74809 1.27091,1.74888 1.2743,1.7494 1.27745,1.74993 1.28007,1.75043 1.28243,1.75071 1.28479,1.75124 1.28686,1.7515 1.27353,1.8106 "/>
   <g>
    <polygon id="_234708968" class="fil3 str0" points="1.27353,1.8106 1.27353,1.8106 1.26987,1.81034 1.26621,1.80982 1.26281,1.80929 1.25942,1.80877 1.25627,1.80824 1.25289,1.80772 1.24948,1.8072 1.24581,1.80667 1.24216,1.80617 1.23796,1.80589 1.23327,1.80562 1.2283,1.80536 1.2228,1.80536 1.21679,1.80562 1.20998,1.80617 1.20241,1.80667 1.20241,1.80667 1.19717,1.80746 1.19219,1.80824 1.18775,1.80982 1.18384,1.81139 1.18017,1.81321 1.17677,1.8153 1.17416,1.81792 1.1718,1.82026 1.17023,1.82315 1.16892,1.82603 1.1684,1.82917 1.1684,1.83232 1.16918,1.83571 1.17023,1.8391 1.17233,1.8425 1.17495,1.84589 1.17495,1.84589 1.18017,1.85085 1.18644,1.85478 1.19376,1.85819 1.20161,1.86107 1.20998,1.86368 1.21861,1.86656 1.22724,1.86971 1.23561,1.87311 1.24347,1.87753 1.25079,1.88303 1.25732,1.88957 1.26281,1.89767 1.267,1.90762 1.26962,1.91939 1.27065,1.93351 1.26962,1.94998 1.26962,1.94998 1.26777,1.96226 1.26464,1.97299 1.26045,1.98295 1.25521,1.99156 1.24922,1.99914 1.2424,2.00568 1.23508,2.01144 1.22698,2.0164 1.21861,2.02033 1.20998,2.02374 1.20108,2.02634 1.19195,2.02844 1.18304,2.03001 1.17443,2.0308 1.16578,2.03132 1.15767,2.03157 1.14644,2.03157 1.13597,2.03132 1.12684,2.03132 1.11819,2.03104 1.11034,2.0308 1.10329,2.03026 1.09701,2.02973 1.09099,2.02896 1.0855,2.02844 1.08054,2.02739 1.07556,2.02661 1.07112,2.0253 1.06669,2.02427 1.06249,2.02269 1.0583,2.02112 1.05386,2.01953 1.06562,1.96176 1.06562,1.96176 1.068,1.96226 1.07086,1.96305 1.07451,1.96412 1.07897,1.96514 1.08367,1.96619 1.08891,1.96726 1.09466,1.96853 1.10093,1.9696 1.10748,1.97065 1.11427,1.97168 1.12133,1.97248 1.12865,1.97327 1.13625,1.97353 1.14382,1.97378 1.1514,1.97378 1.159,1.97353 1.159,1.97353 1.16656,1.97196 1.17259,1.96986 1.17731,1.96698 1.18096,1.96331 1.18358,1.95966 1.18566,1.95547 1.18699,1.95129 1.18802,1.94736 1.18802,1.94736 1.18854,1.93978 1.18618,1.93326 1.18175,1.92802 1.17519,1.92357 1.16735,1.91965 1.15821,1.91572 1.14799,1.91205 1.13781,1.9079 1.12736,1.90318 1.11742,1.89767 1.10827,1.89088 1.09988,1.88277 1.09334,1.87283 1.08865,1.86107 1.08629,1.84694 1.08655,1.8302 1.08655,1.8302 1.08786,1.82 1.08969,1.81034 1.09232,1.80145 1.09544,1.79308 1.09962,1.78524 1.10433,1.77844 1.10982,1.77189 1.11635,1.76614 1.12395,1.76118 1.1323,1.75699 1.14172,1.75307 1.1522,1.75019 1.16396,1.74783 1.17677,1.74602 1.19088,1.74497 1.20633,1.74469 1.216,1.74469 1.2249,1.74497 1.23298,1.74523 1.24032,1.74549 1.24686,1.74602 1.25289,1.74654 1.25809,1.74706 1.26281,1.74757 1.26726,1.74809 1.27091,1.74888 1.2743,1.7494 1.27745,1.74993 1.28007,1.75043 1.28243,1.75071 1.28479,1.75124 1.28686,1.7515 "/>
   </g>
   <polygon class="fil2" points="1.3355,1.68689 1.40795,1.68689 1.39722,1.75019 1.4409,1.75019 1.43148,1.80929 1.38545,1.80798 1.36034,1.95389 1.36008,1.95914 1.36139,1.96357 1.36401,1.96698 1.36742,1.96986 1.37212,1.97168 1.37736,1.97327 1.38311,1.9743 1.38938,1.97482 1.39513,1.97456 1.40035,1.97404 1.40507,1.97327 1.40924,1.9722 1.41265,1.97117 1.41501,1.97039 1.41658,1.96986 1.41709,1.9696 1.40795,2.01824 1.40612,2.01953 1.40428,2.0206 1.40247,2.02163 1.40061,2.02269 1.3988,2.02346 1.3967,2.02427 1.39434,2.02505 1.39198,2.02582 1.38938,2.02661 1.38676,2.02713 1.38363,2.02765 1.38049,2.02818 1.3771,2.02868 1.37317,2.02921 1.36897,2.02973 1.36454,2.03026 1.34466,2.03026 1.33419,2.02947 1.32504,2.02844 1.31669,2.02687 1.30961,2.02505 1.3036,2.02269 1.29864,2.02005 1.29418,2.01693 1.2908,2.01352 1.28817,2.00987 1.28634,2.00543 1.28505,2.00096 1.28426,1.99602 1.284,1.99051 1.284,1.98475 1.28479,1.97876 1.28555,1.9722 1.3355,1.68689 "/>
   <g>
    <polygon class="fil3 str0" points="1.3355,1.68689 1.40795,1.68689 1.39722,1.75019 1.4409,1.75019 1.43148,1.80929 1.38545,1.80798 1.36034,1.95389 1.36034,1.95389 1.36008,1.95914 1.36139,1.96357 1.36401,1.96698 1.36742,1.96986 1.37212,1.97168 1.37736,1.97327 1.38311,1.9743 1.38938,1.97482 1.38938,1.97482 1.39513,1.97456 1.40035,1.97404 1.40507,1.97327 1.40924,1.9722 1.41265,1.97117 1.41501,1.97039 1.41658,1.96986 1.41709,1.9696 1.40795,2.01824 1.40795,2.01824 1.40612,2.01953 1.40428,2.0206 1.40247,2.02163 1.40061,2.02269 1.3988,2.02346 1.3967,2.02427 1.39434,2.02505 1.39198,2.02582 1.38938,2.02661 1.38676,2.02713 1.38363,2.02765 1.38049,2.02818 1.3771,2.02868 1.37317,2.02921 1.36897,2.02973 1.36454,2.03026 1.34466,2.03026 1.34466,2.03026 1.33419,2.02947 1.32504,2.02844 1.31669,2.02687 1.30961,2.02505 1.3036,2.02269 1.29864,2.02005 1.29418,2.01693 1.2908,2.01352 1.28817,2.00987 1.28634,2.00543 1.28505,2.00096 1.28426,1.99602 1.284,1.99051 1.284,1.98475 1.28479,1.97876 1.28555,1.9722 "/>
   </g>
   <polygon class="fil2" points="1.49867,1.9079 1.49791,1.91231 1.49764,1.91703 1.49817,1.92199 1.49922,1.92697 1.50105,1.93193 1.50315,1.93665 1.50601,1.94161 1.50916,1.94605 1.51283,1.95051 1.51674,1.95444 1.52091,1.95835 1.52563,1.96149 1.53033,1.96438 1.53557,1.96672 1.5408,1.96853 1.54602,1.9696 1.55281,1.97065 1.55935,1.97142 1.56616,1.9722 1.57296,1.97273 1.57975,1.97299 1.58681,1.97299 1.59361,1.97273 1.60068,1.9722 1.60774,1.97117 1.6148,1.96986 1.62212,1.96829 1.62918,1.96593 1.63652,1.96305 1.64408,1.9599 1.6514,1.95575 1.659,1.95129 1.64854,2.01562 1.64436,2.01771 1.64017,2.01981 1.63599,2.02138 1.63206,2.02294 1.62815,2.02427 1.62395,2.02556 1.61976,2.02661 1.61532,2.02739 1.61061,2.02818 1.6054,2.02868 1.5999,2.02921 1.59387,2.02973 1.58709,2.03001 1.58003,2.03001 1.57191,2.03026 1.56328,2.03026 1.55047,2.03001 1.53739,2.02868 1.52432,2.02687 1.51124,2.02374 1.49843,2.01981 1.48613,2.01483 1.47437,2.00832 1.46338,2.00071 1.45318,1.99182 1.44429,1.98111 1.43673,1.96908 1.43044,1.95522 1.42598,1.93978 1.4231,1.92226 1.42233,1.9029 1.42364,1.88146 1.42469,1.87311 1.42626,1.86341 1.42834,1.85323 1.43122,1.84222 1.43515,1.83099 1.43985,1.81976 1.44586,1.80824 1.45318,1.79725 1.46155,1.78681 1.47177,1.77687 1.48325,1.76798 1.49633,1.76013 1.5115,1.75358 1.52851,1.74888 1.54733,1.74575 1.5685,1.74469 1.57871,1.74497 1.58943,1.74602 1.60016,1.74783 1.61089,1.75043 1.62133,1.75437 1.63154,1.75908 1.64095,1.76535 1.64958,1.77267 1.65743,1.78159 1.66396,1.79203 1.66918,1.80405 1.67285,1.81792 1.67495,1.83361 1.67521,1.85138 1.67338,1.87126 1.66945,1.89324 1.66815,1.90917 1.47752,1.90917 1.48954,1.85765 1.60407,1.85765 1.60462,1.85113 1.60433,1.84486 1.60381,1.8391 1.60278,1.83387 1.60093,1.82889 1.59911,1.82446 1.59649,1.82053 1.59387,1.81687 1.59074,1.81373 1.58734,1.81111 1.58342,1.80877 1.57951,1.80667 1.57532,1.8051 1.57112,1.80405 1.56669,1.80328 1.56197,1.80276 1.55701,1.80302 1.55231,1.80381 1.54785,1.80484 1.5434,1.80643 1.53896,1.80851 1.53505,1.81087 1.53112,1.81373 1.52771,1.81687 1.52432,1.82053 1.52118,1.82446 1.51831,1.82863 1.51595,1.83309 1.51359,1.8378 1.51176,1.84303 1.51021,1.84825 1.50916,1.85374 1.49867,1.9079 "/>
   <g>
    <polygon class="fil3 str0" points="1.49867,1.9079 1.49867,1.9079 1.49791,1.91231 1.49764,1.91703 1.49817,1.92199 1.49922,1.92697 1.50105,1.93193 1.50315,1.93665 1.50601,1.94161 1.50916,1.94605 1.51283,1.95051 1.51674,1.95444 1.52091,1.95835 1.52563,1.96149 1.53033,1.96438 1.53557,1.96672 1.5408,1.96853 1.54602,1.9696 1.54602,1.9696 1.55281,1.97065 1.55935,1.97142 1.56616,1.9722 1.57296,1.97273 1.57975,1.97299 1.58681,1.97299 1.59361,1.97273 1.60068,1.9722 1.60774,1.97117 1.6148,1.96986 1.62212,1.96829 1.62918,1.96593 1.63652,1.96305 1.64408,1.9599 1.6514,1.95575 1.659,1.95129 1.64854,2.01562 1.64854,2.01562 1.64436,2.01771 1.64017,2.01981 1.63599,2.02138 1.63206,2.02294 1.62815,2.02427 1.62395,2.02556 1.61976,2.02661 1.61532,2.02739 1.61061,2.02818 1.6054,2.02868 1.5999,2.02921 1.59387,2.02973 1.58709,2.03001 1.58003,2.03001 1.57191,2.03026 1.56328,2.03026 1.56328,2.03026 1.55047,2.03001 1.53739,2.02868 1.52432,2.02687 1.51124,2.02374 1.49843,2.01981 1.48613,2.01483 1.47437,2.00832 1.46338,2.00071 1.45318,1.99182 1.44429,1.98111 1.43673,1.96908 1.43044,1.95522 1.42598,1.93978 1.4231,1.92226 1.42233,1.9029 1.42364,1.88146 1.42364,1.88146 1.42469,1.87311 1.42626,1.86341 1.42834,1.85323 1.43122,1.84222 1.43515,1.83099 1.43985,1.81976 1.44586,1.80824 1.45318,1.79725 1.46155,1.78681 1.47177,1.77687 1.48325,1.76798 1.49633,1.76013 1.5115,1.75358 1.52851,1.74888 1.54733,1.74575 1.5685,1.74469 1.5685,1.74469 1.57871,1.74497 1.58943,1.74602 1.60016,1.74783 1.61089,1.75043 1.62133,1.75437 1.63154,1.75908 1.64095,1.76535 1.64958,1.77267 1.65743,1.78159 1.66396,1.79203 1.66918,1.80405 1.67285,1.81792 1.67495,1.83361 1.67521,1.85138 1.67338,1.87126 1.66945,1.89324 1.66815,1.90917 1.47752,1.90917 1.48954,1.85765 1.60407,1.85765 1.60407,1.85765 1.60462,1.85113 1.60433,1.84486 1.60381,1.8391 1.60278,1.83387 1.60093,1.82889 1.59911,1.82446 1.59649,1.82053 1.59387,1.81687 1.59074,1.81373 1.58734,1.81111 1.58342,1.80877 1.57951,1.80667 1.57532,1.8051 1.57112,1.80405 1.56669,1.80328 1.56197,1.80276 1.56197,1.80276 1.55701,1.80302 1.55231,1.80381 1.54785,1.80484 1.5434,1.80643 1.53896,1.80851 1.53505,1.81087 1.53112,1.81373 1.52771,1.81687 1.52432,1.82053 1.52118,1.82446 1.51831,1.82863 1.51595,1.83309 1.51359,1.8378 1.51176,1.84303 1.51021,1.84825 1.50916,1.85374 "/>
   </g>
   <polygon class="fil2" points="2.12238,1.76588 2.11899,1.76406 2.11561,1.76249 2.11194,1.76066 2.10802,1.75882 2.10409,1.75725 2.09964,1.75568 2.0952,1.7541 2.09048,1.75255 2.08552,1.75124 2.08054,1.75019 2.07506,1.74914 2.06955,1.74837 2.06356,1.74783 2.05753,1.74731 2.03819,1.74731 2.03138,1.74783 2.02432,1.74862 2.01702,1.74993 2.00968,1.75202 2.00236,1.75491 1.99504,1.75856 1.9877,1.76326 1.98066,1.76902 1.97385,1.7758 1.96732,1.78419 1.96105,1.79387 1.9553,1.80536 1.94979,1.81845 1.94483,1.83309 1.94066,1.84982 1.93909,1.85924 1.93802,1.86838 1.93749,1.87753 1.93777,1.88644 1.93856,1.89532 1.94038,1.9037 1.94274,1.91153 1.9456,1.91939 1.94955,1.92645 1.95423,1.93326 1.95973,1.93925 1.96601,1.94476 1.97308,1.94946 1.98119,1.95339 1.99006,1.95678 2,1.95914 2.00341,1.9599 2.00732,1.96071 2.01204,1.96123 2.01726,1.96176 2.02301,1.96226 2.03557,1.96226 2.04211,1.96176 2.0489,1.96097 2.05572,1.95966 2.06223,1.95784 2.06878,1.95575 2.07532,1.95286 2.08133,1.94946 2.08683,1.94528 2.09205,1.94056 2.0803,2.01039 2.07873,2.0117 2.07715,2.01326 2.07506,2.01511 2.0727,2.01667 2.06983,2.01876 2.06616,2.0206 2.06199,2.02241 2.05727,2.02399 2.05126,2.02582 2.04447,2.02713 2.03662,2.02818 2.02745,2.02921 2.01726,2.02973 2.00551,2.03001 1.99216,2.02973 1.97752,2.02896 1.9655,2.02765 1.95346,2.02505 1.94144,2.02112 1.92939,2.01588 1.91789,2.00961 1.9069,2.00176 1.89646,1.99263 1.88678,1.98214 1.87813,1.97039 1.87083,1.9573 1.86456,1.94266 1.85984,1.92671 1.85669,1.90917 1.85565,1.89062 1.85617,1.87023 1.85905,1.84853 1.86115,1.8378 1.86349,1.82734 1.86611,1.81714 1.86873,1.80746 1.87161,1.7983 1.875,1.78915 1.87841,1.78054 1.88204,1.77243 1.88599,1.76431 1.88992,1.75672 1.89434,1.7494 1.89906,1.74261 1.90378,1.73607 1.909,1.7298 1.91422,1.72404 1.91971,1.71855 1.92574,1.71331 1.93175,1.70835 1.93802,1.70391 1.94457,1.69972 1.95163,1.69579 1.95869,1.6924 1.96601,1.68925 1.97359,1.68639 1.98171,1.68375 1.9898,1.68167 1.99817,1.67984 2.00708,1.67826 2.01595,1.67695 2.02537,1.67592 2.03479,1.6754 2.04473,1.67512 2.0531,1.6754 2.0612,1.67592 2.06903,1.67669 2.07689,1.67774 2.08421,1.67881 2.09127,1.68036 2.09806,1.68167 2.10434,1.68324 2.11036,1.68482 2.11561,1.68639 2.12057,1.68794 2.12476,1.68952 2.12841,1.69083 2.13154,1.69187 2.13391,1.69292 2.13545,1.69345 2.12238,1.76588 "/>
   <g>
    <polygon class="fil3 str0" points="2.12238,1.76588 2.12238,1.76588 2.11899,1.76406 2.11561,1.76249 2.11194,1.76066 2.10802,1.75882 2.10409,1.75725 2.09964,1.75568 2.0952,1.7541 2.09048,1.75255 2.08552,1.75124 2.08054,1.75019 2.07506,1.74914 2.06955,1.74837 2.06356,1.74783 2.05753,1.74731 2.04473,1.74731 2.03819,1.74731 2.03138,1.74783 2.02432,1.74862 2.01702,1.74993 2.00968,1.75202 2.00236,1.75491 1.99504,1.75856 1.9877,1.76326 1.98066,1.76902 1.97385,1.7758 1.96732,1.78419 1.96105,1.79387 1.9553,1.80536 1.94979,1.81845 1.94483,1.83309 1.94066,1.84982 1.94066,1.84982 1.93909,1.85924 1.93802,1.86838 1.93749,1.87753 1.93777,1.88644 1.93856,1.89532 1.94038,1.9037 1.94274,1.91153 1.9456,1.91939 1.94955,1.92645 1.95423,1.93326 1.95973,1.93925 1.96601,1.94476 1.97308,1.94946 1.98119,1.95339 1.99006,1.95678 2,1.95914 2,1.95914 2.00341,1.9599 2.00732,1.96071 2.01204,1.96123 2.01726,1.96176 2.02301,1.96226 2.03557,1.96226 2.04211,1.96176 2.0489,1.96097 2.05572,1.95966 2.06223,1.95784 2.06878,1.95575 2.07532,1.95286 2.08133,1.94946 2.08683,1.94528 2.09205,1.94056 2.0803,2.01039 2.0803,2.01039 2.07873,2.0117 2.07715,2.01326 2.07506,2.01511 2.0727,2.01667 2.06983,2.01876 2.06616,2.0206 2.06199,2.02241 2.05727,2.02399 2.05126,2.02582 2.04447,2.02713 2.03662,2.02818 2.02745,2.02921 2.01726,2.02973 2.00551,2.03001 1.99216,2.02973 1.97752,2.02896 1.97752,2.02896 1.9655,2.02765 1.95346,2.02505 1.94144,2.02112 1.92939,2.01588 1.91789,2.00961 1.9069,2.00176 1.89646,1.99263 1.88678,1.98214 1.87813,1.97039 1.87083,1.9573 1.86456,1.94266 1.85984,1.92671 1.85669,1.90917 1.85565,1.89062 1.85617,1.87023 1.85905,1.84853 1.85905,1.84853 1.86115,1.8378 1.86349,1.82734 1.86611,1.81714 1.86873,1.80746 1.87161,1.7983 1.875,1.78915 1.87841,1.78054 1.88204,1.77243 1.88599,1.76431 1.88992,1.75672 1.89434,1.7494 1.89906,1.74261 1.90378,1.73607 1.909,1.7298 1.91422,1.72404 1.91971,1.71855 1.92574,1.71331 1.93175,1.70835 1.93802,1.70391 1.94457,1.69972 1.95163,1.69579 1.95869,1.6924 1.96601,1.68925 1.97359,1.68639 1.98171,1.68375 1.9898,1.68167 1.99817,1.67984 2.00708,1.67826 2.01595,1.67695 2.02537,1.67592 2.03479,1.6754 2.04473,1.67512 2.04473,1.67512 2.0531,1.6754 2.0612,1.67592 2.06903,1.67669 2.07689,1.67774 2.08421,1.67881 2.09127,1.68036 2.09806,1.68167 2.10434,1.68324 2.11036,1.68482 2.11561,1.68639 2.12057,1.68794 2.12476,1.68952 2.12841,1.69083 2.13154,1.69187 2.13391,1.69292 2.13545,1.69345 "/>
   </g>
   <polygon class="fil2" points="2.76624,2.03026 2.6938,2.03026 2.69903,2.00124 2.69903,1.99862 2.69485,2.00384 2.6904,2.00856 2.68594,2.01275 2.68124,2.0164 2.67652,2.01981 2.67184,2.02269 2.66713,2.02505 2.66215,2.02739 2.65719,2.02921 2.65222,2.03054 2.64725,2.03185 2.642,2.03262 2.63678,2.0334 2.63182,2.03393 2.62658,2.03421 2.62135,2.03421 2.60776,2.03314 2.5952,2.03026 2.58369,2.02582 2.57324,2.01981 2.56382,2.01223 2.55546,2.00334 2.54814,1.99366 2.54186,1.98267 2.53662,1.97089 2.53245,1.95863 2.52956,1.94581 2.52747,1.93248 2.52668,1.91911 2.52696,1.90552 2.52825,1.89219 2.53059,1.87886 2.53453,1.86341 2.53924,1.84878 2.54473,1.83545 2.55128,1.82288 2.55808,1.81111 2.5659,1.80066 2.57403,1.79125 2.58266,1.78262 2.59179,1.77503 2.60149,1.7685 2.61143,1.76275 2.62135,1.7583 2.63182,1.75465 2.64227,1.75229 2.65275,1.75071 2.66346,1.75019 2.67104,1.75043 2.67836,1.75124 2.68516,1.75255 2.69145,1.75437 2.69745,1.75646 2.7027,1.75882 2.70792,1.7617 2.71264,1.76457 2.71681,1.76771 2.72073,1.77112 2.72411,1.77451 2.72728,1.77792 2.72988,1.7813 2.73224,1.78471 2.73434,1.78786 2.73591,1.79098 2.73591,1.79098 2.75422,1.6882 2.82534,1.6882 2.76624,2.03026 "/>
   <g>
    <polygon class="fil3 str0" points="2.76624,2.03026 2.6938,2.03026 2.69903,2.00124 2.69903,1.99862 2.69485,2.00384 2.6904,2.00856 2.68594,2.01275 2.68124,2.0164 2.67652,2.01981 2.67184,2.02269 2.66713,2.02505 2.66215,2.02739 2.65719,2.02921 2.65222,2.03054 2.64725,2.03185 2.642,2.03262 2.63678,2.0334 2.63182,2.03393 2.62658,2.03421 2.62135,2.03421 2.62135,2.03421 2.60776,2.03314 2.5952,2.03026 2.58369,2.02582 2.57324,2.01981 2.56382,2.01223 2.55546,2.00334 2.54814,1.99366 2.54186,1.98267 2.53662,1.97089 2.53245,1.95863 2.52956,1.94581 2.52747,1.93248 2.52668,1.91911 2.52696,1.90552 2.52825,1.89219 2.53059,1.87886 2.53059,1.87886 2.53453,1.86341 2.53924,1.84878 2.54473,1.83545 2.55128,1.82288 2.55808,1.81111 2.5659,1.80066 2.57403,1.79125 2.58266,1.78262 2.59179,1.77503 2.60149,1.7685 2.61143,1.76275 2.62135,1.7583 2.63182,1.75465 2.64227,1.75229 2.65275,1.75071 2.66346,1.75019 2.66346,1.75019 2.67104,1.75043 2.67836,1.75124 2.68516,1.75255 2.69145,1.75437 2.69745,1.75646 2.7027,1.75882 2.70792,1.7617 2.71264,1.76457 2.71681,1.76771 2.72073,1.77112 2.72411,1.77451 2.72728,1.77792 2.72988,1.7813 2.73224,1.78471 2.73434,1.78786 2.73591,1.79098 2.73591,1.79098 2.75422,1.6882 2.82534,1.6882 "/>
   </g>
   <polygon class="fil0" points="2.64777,1.96698 2.65509,1.96646 2.6619,1.9649 2.66818,1.96305 2.67418,1.96018 2.67967,1.95704 2.68491,1.95311 2.68987,1.94869 2.69433,1.94395 2.69824,1.93875 2.70189,1.93298 2.7053,1.92697 2.70818,1.92068 2.71078,1.91417 2.71288,1.90737 2.71472,1.9003 2.71603,1.89324 2.71734,1.88592 2.7181,1.87834 2.7181,1.87126 2.71784,1.86396 2.71707,1.85714 2.71603,1.85061 2.71419,1.84434 2.71209,1.83831 2.70949,1.83309 2.70635,1.82813 2.70296,1.82393 2.69903,1.82026 2.69457,1.81714 2.68987,1.81504 2.68491,1.81373 2.67941,1.81321 2.67235,1.81373 2.66582,1.81478 2.65979,1.81687 2.65378,1.8195 2.64856,1.82288 2.64333,1.82706 2.63888,1.83153 2.63442,1.83648 2.63051,1.84222 2.62686,1.84825 2.62345,1.85452 2.62057,1.86132 2.61797,1.86838 2.61587,1.87545 2.61377,1.88303 2.61222,1.89062 2.61089,1.90213 2.61143,1.91467 2.61325,1.9275 2.61664,1.93978 2.62188,1.95051 2.62867,1.95914 2.6373,1.9649 2.64777,1.96698 "/>
   <polygon class="fil2" points="1.04182,1.9722 1.03138,2.03026 0.96548,2.03026 0.967296,2.01953 0.968625,2.00987 0.969655,2.00257 0.970703,1.99862 0.967034,2.00281 0.962859,2.00699 0.957879,2.01092 0.952413,2.01459 0.946123,2.01824 0.939589,2.02138 0.932775,2.02451 0.925717,2.02713 0.918135,2.02947 0.910553,2.03132 0.902971,2.03288 0.895127,2.03393 0.887545,2.03445 0.879963,2.03471 0.872624,2.03393 0.865566,2.03288 0.856412,2.03054 0.848062,2.02792 0.840723,2.02451 0.83419,2.0206 0.828442,2.0164 0.823219,2.0117 0.819026,2.00672 0.815356,2.0015 0.81223,1.99602 0.809609,1.99025 0.807512,1.9845 0.805958,1.97876 0.80491,1.97273 0.804124,1.96672 0.8036,1.96097 0.8036,1.95522 0.804386,1.94502 0.805958,1.93534 0.808561,1.92619 0.811949,1.91729 0.816161,1.90893 0.82086,1.90134 0.826346,1.89402 0.832636,1.88747 0.839169,1.88146 0.846489,1.87598 0.854071,1.871 0.861916,1.86682 0.870284,1.86317 0.878914,1.86029 0.887807,1.85793 0.896943,1.85636 0.897485,1.85636 0.898796,1.8561 0.900631,1.85583 0.903495,1.85557 0.906621,1.85505 0.910291,1.85478 0.914222,1.85428 0.918659,1.85374 0.923096,1.85323 0.927551,1.85269 0.93225,1.85244 0.936444,1.85192 0.940637,1.85166 0.94455,1.85138 0.948219,1.85113 0.957112,1.85113 0.963383,1.85138 0.969131,1.85166 0.974897,1.85166 0.979596,1.85192 0.983246,1.85216 0.985867,1.85244 0.986654,1.85244 0.987197,1.85061 0.98875,1.84589 0.990061,1.84041 0.990585,1.83545 0.989518,1.82968 0.987197,1.82446 0.984051,1.81976 0.979858,1.81583 0.974897,1.81244 0.969393,1.81008 0.963121,1.80851 0.956326,1.80798 0.949006,1.80772 0.941143,1.80746 0.933037,1.80746 0.924668,1.80772 0.916038,1.80824 0.90767,1.80903 0.89932,1.80982 0.891195,1.81087 0.88337,1.81191 0.875769,1.81321 0.868973,1.81452 0.862702,1.81583 0.856936,1.8174 0.852237,1.81897 0.848586,1.82079 0.845703,1.82236 0.864274,1.75934 0.870022,1.75699 0.875769,1.75491 0.882041,1.75307 0.888312,1.75176 0.894602,1.75043 0.901398,1.7494 0.908213,1.74837 0.91527,1.74783 0.92259,1.74731 0.930172,1.74706 0.938016,1.74678 0.963121,1.74678 0.972276,1.74706 0.98143,1.74731 0.98875,1.74783 0.996595,1.74914 1.0047,1.75098 1.01307,1.75334 1.02118,1.75646 1.02902,1.76013 1.03686,1.76457 1.04418,1.76953 1.05072,1.7753 1.05648,1.78159 1.06171,1.78862 1.06562,1.79649 1.06824,1.80484 1.06981,1.81373 1.06981,1.82367 1.06824,1.83414 1.04182,1.9722 "/>
   <g>
    <polygon class="fil3 str0" points="1.04182,1.9722 1.03138,2.03026 0.96548,2.03026 0.96548,2.03026 0.967296,2.01953 0.968625,2.00987 0.969655,2.00257 0.970703,1.99862 0.970703,1.99862 0.967034,2.00281 0.962859,2.00699 0.957879,2.01092 0.952413,2.01459 0.946123,2.01824 0.939589,2.02138 0.932775,2.02451 0.925717,2.02713 0.918135,2.02947 0.910553,2.03132 0.902971,2.03288 0.895127,2.03393 0.887545,2.03445 0.879963,2.03471 0.872624,2.03393 0.865566,2.03288 0.865566,2.03288 0.856412,2.03054 0.848062,2.02792 0.840723,2.02451 0.83419,2.0206 0.828442,2.0164 0.823219,2.0117 0.819026,2.00672 0.815356,2.0015 0.81223,1.99602 0.809609,1.99025 0.807512,1.9845 0.805958,1.97876 0.80491,1.97273 0.804124,1.96672 0.8036,1.96097 0.8036,1.95522 0.804386,1.94502 0.805958,1.93534 0.808561,1.92619 0.811949,1.91729 0.816161,1.90893 0.82086,1.90134 0.826346,1.89402 0.832636,1.88747 0.839169,1.88146 0.846489,1.87598 0.854071,1.871 0.861916,1.86682 0.870284,1.86317 0.878914,1.86029 0.887807,1.85793 0.896943,1.85636 0.897485,1.85636 0.898796,1.8561 0.900631,1.85583 0.903495,1.85557 0.906621,1.85505 0.910291,1.85478 0.914222,1.85428 0.918659,1.85374 0.923096,1.85323 0.927551,1.85269 0.93225,1.85244 0.936444,1.85192 0.940637,1.85166 0.94455,1.85138 0.948219,1.85113 0.951084,1.85113 0.957112,1.85113 0.963383,1.85138 0.969131,1.85166 0.974897,1.85166 0.979596,1.85192 0.983246,1.85216 0.985867,1.85244 0.986654,1.85244 0.986654,1.85244 0.987197,1.85061 0.98875,1.84589 0.990061,1.84041 0.990585,1.83545 0.990585,1.83545 0.989518,1.82968 0.987197,1.82446 0.984051,1.81976 0.979858,1.81583 0.974897,1.81244 0.969393,1.81008 0.963121,1.80851 0.956326,1.80798 0.956326,1.80798 0.949006,1.80772 0.941143,1.80746 0.933037,1.80746 0.924668,1.80772 0.916038,1.80824 0.90767,1.80903 0.89932,1.80982 0.891195,1.81087 0.88337,1.81191 0.875769,1.81321 0.868973,1.81452 0.862702,1.81583 0.856936,1.8174 0.852237,1.81897 0.848586,1.82079 0.845703,1.82236 0.864274,1.75934 0.864274,1.75934 0.870022,1.75699 0.875769,1.75491 0.882041,1.75307 0.888312,1.75176 0.894602,1.75043 0.901398,1.7494 0.908213,1.74837 0.91527,1.74783 0.92259,1.74731 0.930172,1.74706 0.938016,1.74678 0.963121,1.74678 0.972276,1.74706 0.98143,1.74731 0.98143,1.74731 0.98875,1.74783 0.996595,1.74914 1.0047,1.75098 1.01307,1.75334 1.02118,1.75646 1.02902,1.76013 1.03686,1.76457 1.04418,1.76953 1.05072,1.7753 1.05648,1.78159 1.06171,1.78862 1.06562,1.79649 1.06824,1.80484 1.06981,1.81373 1.06981,1.82367 1.06824,1.83414 "/>
   </g>
   <polygon class="fil1" points="0.97881,1.90396 0.978547,1.90265 0.977499,1.90134 0.975927,1.90056 0.973324,1.90001 0.970441,1.89951 0.967034,1.89925 0.959209,1.89925 0.955015,1.89951 0.95056,1.90001 0.946385,1.90056 0.942191,1.90108 0.938279,1.90159 0.934609,1.90239 0.931483,1.90318 0.9286,1.90396 0.926765,1.90447 0.924668,1.90526 0.921804,1.9063 0.918921,1.90762 0.915514,1.90917 0.912125,1.91102 0.908475,1.91284 0.905067,1.91494 0.901398,1.91756 0.897991,1.92016 0.894865,1.92332 0.891981,1.92645 0.889379,1.92986 0.887545,1.93351 0.885972,1.93768 0.885186,1.94187 0.884924,1.95077 0.886234,1.95784 0.888855,1.96305 0.892244,1.96698 0.896175,1.9696 0.900631,1.97117 0.904805,1.97196 0.908999,1.9722 0.916824,1.97196 0.923901,1.97117 0.930697,1.97012 0.936706,1.96853 0.941929,1.96672 0.946909,1.96438 0.951346,1.96202 0.955277,1.95914 0.958684,1.95651 0.961811,1.95339 0.964413,1.95051 0.96651,1.94736 0.968363,1.94423 0.969917,1.94109 0.971228,1.93821 0.972014,1.93534 0.974111,1.92776 0.975927,1.91911 0.977499,1.91076 0.97881,1.90396 "/>
   <polygon class="fil2" points="0.491614,2.03026 0.420493,2.03026 0.479838,1.68689 0.603528,1.68689 0.615304,1.89062 0.700821,1.68689 0.830015,1.68689 0.76934,2.03026 0.6982,2.03026 0.743187,1.77372 0.740323,1.77372 0.633875,2.03026 0.553599,2.03026 0.553075,2.01953 0.55124,1.99102 0.548881,1.95051 0.54626,1.90396 0.543658,1.85714 0.541299,1.81609 0.539465,1.78628 0.538941,1.77372 0.535028,1.77372 0.535028,1.77372 0.491614,2.03026 "/>
   <g>
    <polygon class="fil3 str0" points="0.491614,2.03026 0.420493,2.03026 0.479838,1.68689 0.603528,1.68689 0.615304,1.89062 0.700821,1.68689 0.830015,1.68689 0.76934,2.03026 0.6982,2.03026 0.743187,1.77372 0.740323,1.77372 0.633875,2.03026 0.553599,2.03026 0.553599,2.03026 0.553075,2.01953 0.55124,1.99102 0.548881,1.95051 0.54626,1.90396 0.543658,1.85714 0.541299,1.81609 0.539465,1.78628 0.538941,1.77372 0.535028,1.77372 0.535028,1.77372 "/>
   </g>
   <polygon class="fil2" points="2.33972,1.9722 2.32899,2.03026 2.26335,2.03026 2.26388,2.01953 2.26414,2.01011 2.26414,2.00307 2.26464,1.99993 2.26126,2.00384 2.25734,2.00777 2.25262,2.01144 2.2474,2.01511 2.24192,2.0185 2.23563,2.02163 2.22909,2.02477 2.22256,2.02739 2.2155,2.02947 2.20816,2.03157 2.20084,2.03288 2.19354,2.03393 2.18594,2.03445 2.17862,2.03471 2.17156,2.03393 2.16451,2.03288 2.15509,2.03054 2.14672,2.02792 2.1394,2.02451 2.13259,2.0206 2.12684,2.0164 2.12188,2.0117 2.11768,2.00672 2.11403,2.0015 2.11089,1.99602 2.10855,1.99025 2.10645,1.9845 2.10514,1.97876 2.10409,1.97273 2.10331,1.96672 2.10278,1.96097 2.10278,1.95522 2.10331,1.94502 2.10488,1.93534 2.10722,1.92619 2.11063,1.91729 2.11456,1.90893 2.11952,1.90134 2.125,1.89402 2.13103,1.88747 2.13781,1.88146 2.14489,1.87598 2.15247,1.871 2.16057,1.86682 2.1687,1.86317 2.17731,1.86029 2.18594,1.85793 2.19483,1.85636 2.19534,1.85636 2.19667,1.8561 2.19848,1.85583 2.2011,1.85557 2.20451,1.85505 2.20816,1.85478 2.21209,1.85428 2.21627,1.85374 2.22072,1.85323 2.22542,1.85269 2.22988,1.85244 2.23433,1.85192 2.23851,1.85166 2.24216,1.85138 2.24583,1.85113 2.25498,1.85113 2.26126,1.85138 2.26726,1.85166 2.27303,1.85166 2.27799,1.85192 2.28219,1.85216 2.28453,1.85244 2.28557,1.85244 2.2861,1.85061 2.28688,1.84589 2.28767,1.84041 2.28819,1.83545 2.28713,1.82968 2.28505,1.82446 2.28164,1.81976 2.27773,1.81583 2.27303,1.81244 2.26753,1.81008 2.26176,1.80851 2.25549,1.80798 2.24819,1.80772 2.24034,1.80746 2.23224,1.80746 2.22385,1.80772 2.21524,1.80824 2.20687,1.80903 2.19848,1.80982 2.1904,1.81087 2.18255,1.81191 2.17497,1.81321 2.16817,1.81452 2.16188,1.81583 2.15612,1.8174 2.15142,1.81897 2.14775,1.82079 2.14489,1.82236 2.16319,1.75934 2.16894,1.75699 2.17497,1.75491 2.18096,1.75307 2.18727,1.75176 2.19378,1.75043 2.20034,1.7494 2.20711,1.74837 2.21419,1.74783 2.22151,1.74731 2.22909,1.74706 2.23667,1.74678 2.26126,1.74678 2.27015,1.74706 2.27904,1.74731 2.28636,1.74783 2.2942,1.74914 2.30231,1.75098 2.31068,1.75334 2.3188,1.75646 2.32689,1.76013 2.33474,1.76457 2.34206,1.76953 2.34861,1.7753 2.35462,1.78159 2.35984,1.78862 2.36377,1.79649 2.36665,1.80484 2.36847,1.81373 2.36847,1.82367 2.36716,1.83414 2.33972,1.9722 "/>
   <polygon class="fil2" points="2.32899,2.03209 2.33056,2.03054 2.34129,1.97248 2.33814,1.97196 2.32743,2.03001 2.32899,2.02844 2.32899,2.03209 2.3303,2.03185 2.33056,2.03054 2.32899,2.03209 "/>
   <polygon class="fil2" points="2.26176,2.03026 2.26335,2.03209 2.32899,2.03209 2.32899,2.02844 2.26335,2.02844 2.26491,2.03026 2.26176,2.03026 2.26152,2.03209 2.26335,2.03209 2.26176,2.03026 "/>
   <polygon class="fil2" points="2.26595,2.00096 2.26361,1.9989 2.26257,2.00307 2.2623,2.01011 2.2623,2.01953 2.26176,2.03026 2.26491,2.03026 2.26543,2.01953 2.26595,2.01011 2.26569,2.00307 2.26569,2.00096 2.26335,1.9989 2.26595,2.00096 "/>
   <polygon class="fil2" points="2.16422,2.03445 2.16422,2.03445 2.17156,2.03548 2.17862,2.03628 2.18594,2.03602 2.19354,2.03548 2.2011,2.03445 2.20842,2.03314 2.21576,2.03104 2.22306,2.02896 2.22962,2.02634 2.23639,2.0232 2.24268,2.02005 2.24819,2.0164 2.25367,2.01275 2.25837,2.00908 2.26257,2.00489 2.26595,2.00096 2.26335,1.9989 2.25994,2.00281 2.25629,2.00648 2.25158,2.01011 2.24662,2.01378 2.24113,2.01693 2.23484,2.02005 2.22857,2.0232 2.22203,2.02582 2.21524,2.02792 2.2079,2.03001 2.20058,2.03132 2.19354,2.03235 2.18594,2.03288 2.17862,2.03314 2.17156,2.03235 2.16477,2.03132 2.16477,2.03132 2.16422,2.03445 "/>
   <polygon class="fil2" points="2.10095,1.95522 2.10095,1.95522 2.10121,1.96097 2.10173,1.96672 2.10252,1.97299 2.10357,1.979 2.10488,1.98475 2.10696,1.99077 2.10933,1.99678 2.11272,2.00229 2.11637,2.00777 2.12057,2.01275 2.12579,2.01771 2.13182,2.02191 2.13861,2.02608 2.1462,2.02947 2.15483,2.03209 2.16422,2.03445 2.16477,2.03132 2.15535,2.02896 2.14724,2.02634 2.14019,2.02294 2.13339,2.01929 2.12787,2.01511 2.12317,2.01066 2.11899,2.00568 2.11532,2.00071 2.11246,1.99523 2.1101,1.98974 2.10802,1.98424 2.10669,1.97847 2.10566,1.97248 2.10488,1.96672 2.10434,1.96097 2.10462,1.95522 2.10095,1.95522 "/>
   <polygon class="fil2" points="2.19483,1.85478 2.19483,1.85478 2.18568,1.85636 2.17679,1.85872 2.16817,1.86158 2.15979,1.86525 2.15168,1.86944 2.14384,1.87465 2.13678,1.88015 2.12998,1.88644 2.12371,1.89296 2.11821,1.9003 2.11297,1.90814 2.10905,1.91677 2.10566,1.92566 2.10331,1.93508 2.10173,1.94502 2.10095,1.95522 2.10462,1.95522 2.10488,1.94502 2.10645,1.9356 2.10879,1.92671 2.1122,1.91782 2.11611,1.90971 2.12083,1.90239 2.12631,1.89507 2.13206,1.88854 2.13886,1.88277 2.14593,1.87729 2.15325,1.87259 2.16136,1.86838 2.1692,1.86473 2.17783,1.86186 2.1862,1.8595 2.19483,1.85793 "/>
   <polygon class="fil2" points="2.24871,1.8493 2.24583,1.8493 2.24216,1.84982 2.23851,1.85009 2.23433,1.85035 2.22988,1.85085 2.22542,1.85113 2.22072,1.85166 2.21627,1.85216 2.21209,1.85269 2.20816,1.85323 2.20451,1.85349 2.2011,1.85402 2.19848,1.85428 2.19641,1.85452 2.19534,1.85478 2.19483,1.85478 2.19483,1.85793 2.19534,1.85793 2.19693,1.85765 2.19848,1.85741 2.2011,1.85714 2.20451,1.85662 2.20816,1.85636 2.21209,1.85583 2.21627,1.85531 2.22072,1.85478 2.22542,1.85428 2.22988,1.85402 2.23433,1.85349 2.23851,1.85323 2.24216,1.85295 2.24871,1.85295 "/>
   <polygon class="fil2" points="2.284,1.85216 2.28557,1.85085 2.28453,1.85085 2.28219,1.85061 2.27799,1.85035 2.27303,1.84982 2.26126,1.84982 2.25498,1.8493 2.24871,1.8493 2.24871,1.85295 2.26126,1.85295 2.26726,1.85349 2.27799,1.85349 2.28219,1.85374 2.28453,1.85402 2.28557,1.85402 2.28713,1.85269 2.28557,1.85402 2.28688,1.85428 2.28713,1.85269 2.284,1.85216 "/>
   <polygon class="fil2" points="2.28662,1.83545 2.28636,1.83545 2.2861,1.84041 2.28531,1.84563 2.28453,1.85035 2.284,1.85216 2.28713,1.85269 2.28767,1.85085 2.28846,1.84615 2.28924,1.84041 2.29001,1.83545 2.28662,1.83545 "/>
   <polygon class="fil2" points="2.25549,1.80955 2.25549,1.80982 2.26152,1.81008 2.267,1.81165 2.27224,1.81399 2.27668,1.81714 2.28033,1.82079 2.2835,1.82524 2.28557,1.82994 2.28662,1.83545 2.28977,1.83545 2.28872,1.82944 2.28662,1.82367 2.28297,1.81871 2.27878,1.81452 2.2738,1.81087 2.26805,1.80851 2.26204,1.80693 2.25549,1.80617 "/>
   <polygon class="fil2" points="2.14333,1.82212 2.14593,1.82367 2.14854,1.82236 2.15194,1.82053 2.1564,1.81897 2.16215,1.8174 2.16842,1.81609 2.17521,1.81478 2.1828,1.81347 2.1904,1.81244 2.19848,1.81139 2.20687,1.8106 2.21524,1.80982 2.22385,1.80929 2.24819,1.80929 2.25549,1.80955 2.25549,1.80643 2.24819,1.80617 2.24034,1.80562 2.23224,1.80562 2.22385,1.80617 2.21524,1.80667 2.20687,1.80746 2.19848,1.80824 2.1904,1.80929 2.18227,1.81034 2.17469,1.81165 2.16791,1.81296 2.16162,1.81425 2.15587,1.81583 2.15089,1.8174 2.14696,1.81923 2.14384,1.82105 2.14646,1.82262 2.14333,1.82212 "/>
   <polygon class="fil2" points="2.16267,1.75777 2.16162,1.75908 2.14333,1.82212 2.14646,1.82262 2.16477,1.75959 2.1637,1.76092 2.16267,1.75777 2.16188,1.75803 2.16162,1.75908 2.16267,1.75777 "/>
   <polygon class="fil2" points="2.27904,1.74575 2.27904,1.74575 2.27015,1.74523 2.26126,1.74497 2.23667,1.74497 2.22909,1.74549 2.22151,1.74575 2.21419,1.74628 2.20711,1.74678 2.20006,1.74783 2.19354,1.74888 2.18699,1.75019 2.18072,1.7515 2.17445,1.75334 2.16842,1.75541 2.16267,1.75777 2.1637,1.76092 2.16947,1.75856 2.17548,1.75646 2.18124,1.75465 2.18751,1.75334 2.19407,1.75202 2.20058,1.75098 2.20711,1.74993 2.21419,1.7494 2.22151,1.74888 2.22909,1.74862 2.26126,1.74862 2.27015,1.74888 2.27904,1.74888 "/>
   <polygon class="fil2" points="2.36873,1.8344 2.36873,1.8344 2.37004,1.82367 2.37004,1.81373 2.36823,1.80457 2.36534,1.79596 2.36115,1.78786 2.35591,1.78054 2.34964,1.774 2.3431,1.76824 2.33552,1.76326 2.32768,1.75856 2.31931,1.75491 2.3112,1.75176 2.30257,1.7494 2.29447,1.74757 2.28636,1.74628 2.27904,1.74575 2.27904,1.74888 2.28636,1.7494 2.29394,1.75071 2.30207,1.75255 2.31015,1.75491 2.31826,1.75803 2.3261,1.7617 2.33395,1.76588 2.34101,1.77086 2.34756,1.77661 2.35331,1.78262 2.35855,1.78941 2.3622,1.79701 2.36506,1.8051 2.3669,1.81373 2.3669,1.82367 2.36559,1.83387 2.36559,1.83387 2.36873,1.8344 "/>
   <polygon class="fil2" points="2.34129,1.97248 2.34129,1.97248 2.36873,1.8344 2.36559,1.83387 2.33814,1.97196 2.33814,1.97196 2.34129,1.97248 "/>
   <polygon class="fil0" points="2.27642,1.90396 2.2759,1.90239 2.27487,1.90108 2.27303,1.9003 2.27041,1.89951 2.26753,1.89925 2.26414,1.89898 2.26021,1.89898 2.25629,1.89925 2.2521,1.89977 2.24791,1.9003 2.24373,1.90082 2.2398,1.90134 2.23589,1.90213 2.23248,1.90265 2.22909,1.90342 2.22647,1.90396 2.22466,1.90423 2.22256,1.90501 2.21994,1.90578 2.21705,1.90683 2.21367,1.9084 2.21052,1.90997 2.20687,1.91181 2.20346,1.91417 2.20006,1.91651 2.19667,1.91939 2.19378,1.92226 2.1909,1.92566 2.18856,1.92931 2.18673,1.93326 2.18515,1.93742 2.18439,1.94187 2.18412,1.95077 2.18542,1.95784 2.18751,1.96305 2.19066,1.96698 2.19457,1.9696 2.19901,1.97117 2.20346,1.97196 2.2079,1.9722 2.21576,1.97196 2.22306,1.97117 2.22988,1.96986 2.23589,1.96803 2.24165,1.96593 2.24662,1.96357 2.25131,1.96097 2.25549,1.95784 2.25916,1.95494 2.2623,1.95155 2.26517,1.94841 2.26753,1.94502 2.26936,1.94187 2.27067,1.93875 2.27172,1.9356 2.27251,1.93274 2.27355,1.9254 2.27487,1.91782 2.2759,1.9105 2.27642,1.90396 "/>
   <polygon class="fil2" points="2.81514,1.99444 2.81566,1.98842 2.81776,1.98136 2.82141,1.97509 2.82586,1.9696 2.83135,1.96514 2.83762,1.96202 2.84441,1.9599 2.85175,1.95914 2.85907,1.9599 2.86587,1.96202 2.87214,1.96514 2.87764,1.9696 2.88208,1.97509 2.88575,1.98136 2.88783,1.98842 2.88835,1.99444 2.88053,1.99444 2.88025,1.98974 2.87867,1.98398 2.87607,1.97876 2.87266,1.9743 2.86849,1.97065 2.86349,1.96803 2.85776,1.96619 2.85175,1.96565 2.84574,1.96619 2.83998,1.96803 2.83502,1.97065 2.83082,1.9743 2.82743,1.97876 2.8248,1.98398 2.82324,1.98974 2.82272,1.99444 2.81514,1.99444 "/>
   <polygon class="fil2" points="2.83867,1.99444 2.83867,1.97876 2.85305,1.97876 2.85619,1.979 2.85907,1.97954 2.86117,1.98033 2.86299,1.98136 2.8643,1.98295 2.86534,1.9845 2.86587,1.98634 2.86613,1.98815 2.86587,1.99051 2.86534,1.99235 2.86458,1.9939 2.86403,1.99444 2.85305,1.99444 2.85409,1.99418 2.85595,1.9939 2.8575,1.99339 2.85881,1.99287 2.85986,1.99208 2.86038,1.9913 2.86089,1.98999 2.86089,1.98815 2.86063,1.98686 2.8601,1.98581 2.85934,1.98527 2.85855,1.98475 2.85722,1.9845 2.85595,1.98424 2.8452,1.98424 2.8452,1.99444 2.83867,1.99444 "/>
   <polygon class="fil2" points="2.81514,1.99444 2.81487,1.99602 2.81566,2.0036 2.81776,2.01066 2.82141,2.01693 2.82586,2.02217 2.83135,2.02661 2.83762,2.03001 2.84441,2.03209 2.85175,2.03288 2.85907,2.03209 2.86587,2.03001 2.87214,2.02661 2.87764,2.02217 2.88208,2.01693 2.88575,2.01066 2.88783,2.0036 2.88862,1.99602 2.88835,1.99444 2.88053,1.99444 2.88077,1.99602 2.88025,2.00229 2.87867,2.00803 2.87607,2.013 2.87266,2.01745 2.86849,2.02112 2.86349,2.02399 2.85776,2.02582 2.85175,2.02634 2.84574,2.02582 2.83998,2.02399 2.83502,2.02112 2.83082,2.01745 2.82743,2.013 2.8248,2.00803 2.82324,2.00229 2.82272,1.99602 2.82272,1.99444 2.81514,1.99444 "/>
   <polygon class="fil2" points="2.83867,1.99444 2.83867,2.01039 2.8452,2.01039 2.8452,1.99733 2.85175,1.99733 2.8596,2.01039 2.86482,2.01039 2.85698,1.99733 2.85881,1.99733 2.86063,1.99678 2.86222,1.99626 2.86349,1.99523 2.86403,1.99444 2.85305,1.99444 2.85175,1.99469 2.8452,1.99469 2.8452,1.99444 2.83867,1.99444 "/>
   <g>
    <path class="fil3 str0" d="M2.85175 2.02634l0 0 0.00600945 -0.000524188 0.00572863 -0.00183466 0.00499851 -0.00286432 0.00417479 -0.00366932 0.00340722 -0.0044556 0.00260222 -0.00496107 0.00157257 -0.00574735 0.000524188 -0.00627154 0 0 -0.000524188 -0.00627154 -0.00157257 -0.00576607 -0.00260222 -0.00522316 -0.00340722 -0.0044556 -0.00417479 -0.0036506 -0.00499851 -0.00262094 -0.00572863 -0.00183466 -0.00600945 -0.000542909 0 0 -0.00600945 0.000542909 -0.00576607 0.00183466 -0.00496107 0.00262094 -0.00419351 0.0036506 -0.0033885 0.0044556 -0.00263966 0.00522316 -0.00155384 0.00576607 -0.000524188 0.00627154 0 0 0.000524188 0.00627154 0.00155384 0.00574735 0.00263966 0.00496107 0.0033885 0.0044556 0.00419351 0.00366932 0.00496107 0.00286432 0.00576607 0.00183466 0.00600945 0.000524188zm0 -0.0316572l0 0 0.00234013 -0.000505467 0.00185338 -0.000280815 0.00155384 -0.000505467 0.00131047 -0.000524188 0.00104838 -0.000786283 0.000524188 -0.000786283 0.000505467 -0.00131047 0 -0.00183466 -0.000262094 -0.00129175 -0.000524188 -0.00104838 -0.000767562 -0.000542909 -0.000786283 -0.000524188 -0.00132919 -0.000243373 -0.00127303 -0.000262094 -0.0107459 0 0 0.0104463 0.00655236 0zm-0.00655236 0.0157069l-0.00653363 0 0 -0.0316385 0.0143777 0 0 0 0.00314513 0.000243373 0.00288304 0.000542909 0.00209675 0.000786283 0.00181594 0.00102966 0.00131047 0.00159129 0.00104838 0.00155384 0.000524188 0.00183466 0.000262094 0.00181594 0 0 -0.000262094 0.00235885 -0.000524188 0.00183466 -0.000767562 0.00155384 -0.00108582 0.00132919 -0.00127303 0.00102966 -0.00159129 0.000524188 -0.00181594 0.000542909 -0.00183466 0 0.00784411 0.0130673 -0.00522316 0 -0.00784411 -0.0130673 -0.00655236 0 0 0.0130673zm-0.030328 -0.0143777l0 0 0.000786283 -0.00760073 0.00209675 -0.00705782 0.0036506 -0.00627154 0.0044556 -0.00548526 0.00548526 -0.0044556 0.00627154 -0.00312641 0.00679573 -0.00211547 0.00733864 -0.000767562 0 0 0.00731992 0.000767562 0.00679573 0.00211547 0.00627154 0.00312641 0.00550398 0.0044556 0.00443688 0.00548526 0.00366932 0.00627154 0.00207803 0.00705782 0.000786283 0.00760073 0 0 -0.000786283 0.00758201 -0.00207803 0.00705782 -0.00366932 0.00627154 -0.00443688 0.00524188 -0.00550398 0.00443688 -0.00627154 0.00340722 -0.00679573 0.00207803 -0.00731992 0.000786283 0 0 -0.00733864 -0.000786283 -0.00679573 -0.00207803 -0.00627154 -0.00340722 -0.00548526 -0.00443688 -0.0044556 -0.00524188 -0.0036506 -0.00627154 -0.00209675 -0.00705782 -0.000786283 -0.00758201z"/>
   </g>
   <polygon class="fil2" points="2.35932,2.03026 2.43306,2.03026 2.43306,2.03026 2.45949,1.88146 2.46052,1.87571 2.46209,1.86995 2.46367,1.8642 2.46576,1.85845 2.46838,1.85269 2.47151,1.84722 2.47492,1.84198 2.47911,1.837 2.48381,1.83256 2.48902,1.82839 2.49504,1.82446 2.50184,1.82131 2.50942,1.81871 2.51781,1.81661 2.52696,1.81504 2.53715,1.81452 2.54368,1.81452 2.54368,1.81452 2.55546,1.74731 2.54814,1.74783 2.54106,1.74862 2.53453,1.74993 2.52825,1.75176 2.52251,1.75384 2.51702,1.75646 2.51178,1.75934 2.50682,1.76249 2.50212,1.76614 2.49766,1.76981 2.49347,1.774 2.4893,1.77818 2.48538,1.78262 2.48145,1.78758 2.47752,1.79229 2.47387,1.79752 2.48171,1.75019 2.40823,1.75019 2.35932,2.03026 "/>
   <g>
    <polygon class="fil3 str0" points="2.35932,2.03026 2.43306,2.03026 2.43306,2.03026 2.45949,1.88146 2.45949,1.88146 2.46052,1.87571 2.46209,1.86995 2.46367,1.8642 2.46576,1.85845 2.46838,1.85269 2.47151,1.84722 2.47492,1.84198 2.47911,1.837 2.48381,1.83256 2.48902,1.82839 2.49504,1.82446 2.50184,1.82131 2.50942,1.81871 2.51781,1.81661 2.52696,1.81504 2.53715,1.81452 2.54368,1.81452 2.54368,1.81452 2.55546,1.74731 2.55546,1.74731 2.54814,1.74783 2.54106,1.74862 2.53453,1.74993 2.52825,1.75176 2.52251,1.75384 2.51702,1.75646 2.51178,1.75934 2.50682,1.76249 2.50212,1.76614 2.49766,1.76981 2.49347,1.774 2.4893,1.77818 2.48538,1.78262 2.48145,1.78758 2.47752,1.79229 2.47387,1.79752 2.48171,1.75019 2.40823,1.75019 2.35932,2.03026 "/>
   </g>
   <polygon class="fil2" points="1.66684,2.03026 1.7419,2.03026 1.767,1.88146 1.76803,1.87571 1.76936,1.87023 1.77067,1.86473 1.77249,1.8595 1.77458,1.85428 1.77719,1.8493 1.78033,1.84458 1.784,1.84014 1.78819,1.83621 1.79289,1.83232 1.79864,1.82917 1.80491,1.82629 1.81225,1.82393 1.82034,1.82185 1.82923,1.82053 1.83943,1.81976 1.84022,1.81976 1.84127,1.82 1.84258,1.82026 1.84389,1.82026 1.8452,1.82053 1.84625,1.82079 1.84702,1.82105 1.84728,1.82105 1.84754,1.82 1.84833,1.81687 1.84937,1.81218 1.85068,1.80643 1.85252,1.79961 1.85434,1.79229 1.85669,1.78496 1.85905,1.77765 1.86115,1.77267 1.86375,1.76771 1.86637,1.76275 1.86898,1.7583 1.87135,1.75437 1.87317,1.75124 1.8745,1.7494 1.875,1.74862 1.87474,1.74862 1.87369,1.74837 1.87238,1.74809 1.87057,1.74783 1.86873,1.74783 1.86662,1.74757 1.8648,1.74731 1.86298,1.74731 1.85488,1.74783 1.84754,1.74862 1.84074,1.74993 1.83447,1.7515 1.82844,1.75358 1.82296,1.7562 1.818,1.75882 1.81328,1.76197 1.80882,1.76535 1.80467,1.76927 1.80074,1.7732 1.79681,1.77765 1.79289,1.78209 1.78922,1.78707 1.78531,1.79229 1.78138,1.79752 1.7908,1.75019 1.71576,1.75019 1.66684,2.03026 "/>
   <g>
    <polygon class="fil3 str0" points="1.66684,2.03026 1.7419,2.03026 1.767,1.88146 1.767,1.88146 1.76803,1.87571 1.76936,1.87023 1.77067,1.86473 1.77249,1.8595 1.77458,1.85428 1.77719,1.8493 1.78033,1.84458 1.784,1.84014 1.78819,1.83621 1.79289,1.83232 1.79864,1.82917 1.80491,1.82629 1.81225,1.82393 1.82034,1.82185 1.82923,1.82053 1.83943,1.81976 1.84022,1.81976 1.84127,1.82 1.84258,1.82026 1.84389,1.82026 1.8452,1.82053 1.84625,1.82079 1.84702,1.82105 1.84728,1.82105 1.84728,1.82105 1.84754,1.82 1.84833,1.81687 1.84937,1.81218 1.85068,1.80643 1.85252,1.79961 1.85434,1.79229 1.85669,1.78496 1.85905,1.77765 1.85905,1.77765 1.86115,1.77267 1.86375,1.76771 1.86637,1.76275 1.86898,1.7583 1.87135,1.75437 1.87317,1.75124 1.8745,1.7494 1.875,1.74862 1.87474,1.74862 1.87369,1.74837 1.87238,1.74809 1.87057,1.74783 1.86873,1.74783 1.86662,1.74757 1.8648,1.74731 1.86298,1.74731 1.86298,1.74731 1.85488,1.74783 1.84754,1.74862 1.84074,1.74993 1.83447,1.7515 1.82844,1.75358 1.82296,1.7562 1.818,1.75882 1.81328,1.76197 1.80882,1.76535 1.80467,1.76927 1.80074,1.7732 1.79681,1.77765 1.79289,1.78209 1.78922,1.78707 1.78531,1.79229 1.78138,1.79752 1.7908,1.75019 1.71576,1.75019 1.66684,2.03026 "/>
   </g>
   <polygon class="fil0" points="2.81566,2.30538 2.81566,2.30431 2.81776,2.29752 2.82141,2.29153 2.82586,2.28629 2.83135,2.28209 2.83762,2.27895 2.84441,2.27713 2.85175,2.27634 2.85907,2.27713 2.86587,2.27895 2.87214,2.28209 2.87764,2.28629 2.88208,2.29153 2.88575,2.29752 2.88783,2.30431 2.88783,2.30538 2.88025,2.30538 2.87867,2.2999 2.87607,2.29492 2.87266,2.29046 2.86849,2.28681 2.86349,2.28395 2.85776,2.28209 2.85175,2.28159 2.84574,2.28209 2.83998,2.28395 2.83502,2.28681 2.83082,2.29046 2.82743,2.29492 2.8248,2.2999 2.82324,2.30538 2.81566,2.30538 "/>
   <polygon class="fil0" points="2.83867,2.30538 2.83867,2.29623 2.85619,2.29623 2.85907,2.29675 2.86117,2.29727 2.86299,2.2983 2.8643,2.29961 2.86534,2.30119 2.86587,2.30302 2.86613,2.30538 2.86089,2.30538 2.86089,2.30407 2.86063,2.30276 2.8601,2.30171 2.85934,2.30119 2.85855,2.30068 2.85722,2.3004 2.85595,2.30016 2.8452,2.30016 2.8452,2.30538 2.83867,2.30538 "/>
   <polygon class="fil0" points="2.81487,2.31113 2.81566,2.30538 2.82324,2.30538 2.82324,2.30564 2.82272,2.31113 2.81487,2.31113 "/>
   <polygon class="fil0" points="2.83867,2.31113 2.83867,2.30538 2.8452,2.30538 2.8452,2.3106 2.85175,2.3106 2.85409,2.31008 2.85595,2.30982 2.8575,2.30929 2.85881,2.30877 2.85986,2.30798 2.86038,2.3072 2.86089,2.3059 2.86089,2.30538 2.86613,2.30538 2.86613,2.30538 2.86587,2.3072 2.86534,2.30877 2.86458,2.31008 2.86349,2.31113 2.83867,2.31113 "/>
   <polygon class="fil0" points="2.88077,2.31113 2.88025,2.30564 2.88025,2.30538 2.88783,2.30538 2.88862,2.31113 2.88077,2.31113 "/>
   <polygon class="fil0" points="2.81487,2.31113 2.81487,2.31191 2.81566,2.3195 2.81776,2.32655 2.82141,2.33283 2.82586,2.33833 2.83135,2.34277 2.83762,2.34589 2.84441,2.34801 2.85175,2.34878 2.85907,2.34801 2.86587,2.34589 2.87214,2.34277 2.87764,2.33833 2.88208,2.33283 2.88575,2.32655 2.88783,2.3195 2.88862,2.31191 2.88862,2.31113 2.88077,2.31113 2.88077,2.31191 2.88025,2.31819 2.87867,2.32393 2.87607,2.32891 2.87266,2.33335 2.86849,2.33702 2.86349,2.33988 2.85776,2.34172 2.85175,2.34224 2.84574,2.34172 2.83998,2.33988 2.83502,2.33702 2.83082,2.33335 2.82743,2.32891 2.8248,2.32393 2.82324,2.31819 2.82272,2.31191 2.82272,2.31113 2.81487,2.31113 "/>
   <polygon class="fil0" points="2.83867,2.31113 2.83867,2.32629 2.8452,2.32629 2.8452,2.31322 2.85175,2.31322 2.8596,2.32629 2.86482,2.32629 2.85698,2.31322 2.85881,2.31322 2.86063,2.3127 2.86222,2.31218 2.86349,2.31113 2.83867,2.31113 "/>
   <g>
    <polygon class="fil4" points="1.27966,0.941723 1.03879,0.941723 1.18935,0.0165494 1.43021,0.0165494 "/>
    <path class="fil4" d="M0.836155 0.0165494l-0.229632 0.636327 -0.0271642 -0.137038 1.8721e-005 5.6163e-005 -0.081062 -0.416018c0,0 -0.00979109,-0.0833272 -0.114254,-0.0833272l-0.379606 0 -0.0044556 0.0156508c0,0 0.116126,0.0241501 0.251947,0.105792l0.209282 0.803731 0.250936 0 0.383238 -0.925174 -0.259249 0z"/>
    <path class="fil4" d="M2.46565 0.614442l0.126592 -0.346226 0.071196 0.346226 -0.197788 0zm0.265052 0.327281l0.22117 0 -0.192845 -0.925174 -0.19365 0c-0.0894303,0 -0.111184,0.0689495 -0.111184,0.0689495l-0.3592 0.856224 0.25103 0 0.0502472 -0.137412 0.306201 0 0.0282313 0.137412z"/>
    <path class="fil4" d="M2.11381 0.23903l0.0343718 -0.198705c0,0 -0.106073,-0.0403251 -0.216621,-0.0403251 -0.119552,0 -0.4034,0.0522691 -0.4034,0.306276 0,0.23903 0.333159,0.242007 0.333159,0.367494 0,0.125506 -0.298806,0.103078 -0.39741,0.0239067l-0.0358507 0.207691c0,0 0.107552,0.0522691 0.271904,0.0522691 0.164352,0 0.412368,-0.0851245 0.412368,-0.316722 0,-0.240528 -0.336155,-0.262955 -0.336155,-0.367512 0,-0.104594 0.234556,-0.0911713 0.337634,-0.0343718z"/>
    <path class="fil5" d="M0.579378 0.515895l-0.081062 -0.416018c0,0 -0.00979109,-0.0833272 -0.114254,-0.0833272l-0.379606 0 -0.0044556 0.0156508c0,0 0.182474,0.0378352 0.357515,0.179497 0.167291,0.135409 0.221863,0.304198 0.221863,0.304198z"/>
   </g>
  </g>
 </g>
</svg>
