<svg width="20" height="20" viewBox="0 0 20 20" fill="none" xmlns="http://www.w3.org/2000/svg">
<g clip-path="url(#clip0_449_6880)">
<path d="M11.7845 10L19.8697 1.91518C20.0438 1.74093 20.0438 1.45861 19.8697 1.28437L18.7166 0.130628C18.633 0.0471947 18.5192 0 18.401 0C18.2826 0 18.169 0.0471947 18.0854 0.130628L10.0004 8.21566L1.91533 0.130628C1.74783 -0.0368708 1.45139 -0.0366601 1.28431 0.130628L0.131413 1.28437C-0.0428278 1.45861 -0.0428278 1.74093 0.131413 1.91518L8.21645 10L0.131413 18.0848C-0.0428278 18.2591 -0.0428278 18.5414 0.131413 18.7156L1.28452 19.8694C1.36817 19.9528 1.48173 20 1.60014 20C1.71854 20 1.8319 19.9528 1.91554 19.8694L10.0006 11.7843L18.0856 19.8694C18.1693 19.9528 18.283 20 18.4012 20C18.5194 20 18.6332 19.9528 18.7168 19.8694L19.8699 18.7156C20.044 18.5414 20.044 18.2591 19.8699 18.0848L11.7845 10Z" fill="#201F22"/>
</g>
<defs>
<clipPath id="clip0_449_6880">
<rect width="20" height="20" fill="white"/>
</clipPath>
</defs>
</svg>
