<svg xmlns="http://www.w3.org/2000/svg" width="20" height="20" viewBox="0 0 20 20">
    <defs>
        <style>
            .prefix__cls-2{fill:#cf142b}
        </style>
    </defs>
    <g id="prefix__iconfinder_United_Kingdom_2361499" transform="translate(-6.447 -5.936)">
        <path id="prefix__rect6883" fill="#00247d" d="M7.585 5.936a1.135 1.135 0 0 0-1.138 1.138V24.8a1.135 1.135 0 0 0 1.138 1.138h17.724a1.135 1.135 0 0 0 1.138-1.138V7.074a1.135 1.135 0 0 0-1.138-1.138H7.585z"/>
        <path id="prefix__path4589" d="M6.447 39.124v1.741l8.492 4.9-8.492 4.9v1.741l10-5.774 10 5.774v-1.735l-8.492-4.9 8.492-4.9v-1.747l-10 5.774z" class="prefix__cls-2" transform="translate(0 -29.832)"/>
        <path id="prefix__path4587" d="M14.727 5.936v8.28h-8.28v3.44h8.28v8.28h3.44v-8.28h8.28v-3.44h-8.28v-8.28h-3.44z" class="prefix__cls-2"/>
        <path id="prefix__rect4572" fill="#fff" d="M14.393 5.936v7.557L6.447 8.906v.772l7.281 4.2H12.05l-5.6-3.235v.772l4.265 2.463H6.447v.669H13.9c.455 0 .734-.019 1.157-.019v-8.6zm3.44 0v8.617h8.614v-.669h-4.265l4.265-2.463v-.772l-5.6 3.235h-1.681l7.281-4.2v-.778L18.5 13.493V5.936zm-2.771 11.393c-.386 0-.789-.008-1.158-.008H6.447v.669h4.265l-4.265 2.463v.772l5.6-3.235h1.678l-7.281 4.2v.772l7.946-4.588v7.557h.669v-8.602zm2.771 0v8.607h.667v-7.557l7.946 4.588v-.772l-7.281-4.2h1.678l5.6 3.235v-.772l-4.261-2.468h4.265v-.669H18.99c-.423 0-1.158.008-1.158.008z"/>
    </g>
</svg>
