<svg width="189" height="34" viewBox="0 0 189 34" fill="none" xmlns="http://www.w3.org/2000/svg">
<path d="M9 19L180 12L178.444 19L9 19Z" fill="#CCF0A7"/>
<path d="M182 13L178.182 19.033L174.5 7L185 5.5L182 13Z" fill="#B1D28F"/>
<path d="M185.152 5.27802L174.265 6.99611L186.638 16.0767L185.152 5.27802Z" fill="#CCF0A7"/>
<path d="M39.8856 19C37.9416 19 36.2406 18.6626 34.7826 17.9877C33.3246 17.2955 32.1906 16.3438 31.3806 15.1325C30.5886 13.9039 30.1926 12.485 30.1926 10.8757C30.1926 9.2837 30.4806 7.82149 31.0566 6.48907C31.6506 5.15665 32.4786 4.00592 33.5406 3.03688C34.6026 2.06785 35.8626 1.32377 37.3206 0.804644C38.7786 0.268215 40.3806 0 42.1266 0C43.9446 0 45.5556 0.311476 46.9596 0.934427C48.3636 1.55738 49.4076 2.45719 50.0916 3.63388L45.5016 7.08607C45.1056 6.4112 44.5926 5.89208 43.9626 5.52869C43.3326 5.148 42.5856 4.95765 41.7216 4.95765C40.9656 4.95765 40.2726 5.09608 39.6426 5.37295C39.0306 5.63251 38.4996 6.01321 38.0496 6.51503C37.5996 6.99954 37.2486 7.57924 36.9966 8.2541C36.7446 8.92896 36.6186 9.67304 36.6186 10.4863C36.6186 11.1958 36.7806 11.8188 37.1046 12.3552C37.4286 12.8916 37.8786 13.3069 38.4546 13.6011C39.0486 13.8953 39.7326 14.0424 40.5066 14.0424C41.2446 14.0424 41.9646 13.878 42.6666 13.5492C43.3866 13.2204 44.0706 12.684 44.7186 11.9399L48.4716 15.3921C47.3196 16.7418 46.0326 17.6849 44.6106 18.2213C43.2066 18.7404 41.6316 19 39.8856 19Z" fill="#7CB342"/>
<path d="M18.348 18.5847L19.995 10.6161L20.697 14.276L15 0.415299H21.399L25.287 9.94126H21.264L29.229 0.415299H35.628L24.207 14.276L26.367 10.6161L24.72 18.5847H18.348Z" fill="#7CB342"/>
<path d="M160.687 18.8962C157.609 18.8962 154.693 18.0137 153.1 16.8716L154.882 13.6271C156.61 14.847 158.878 15.5219 161.119 15.5219C163.522 15.5219 165.034 14.7172 165.034 13.3934C165.034 10.4863 155.665 12.0437 155.665 6.25546C155.665 2.51776 159.067 0.103825 164.305 0.103825C166.843 0.103825 169.192 0.648906 170.839 1.6612L169.192 4.87978C167.761 3.94536 165.925 3.47814 164.062 3.47814C161.524 3.47814 160.039 4.41257 160.039 5.71038C160.012 8.69536 169.408 7.13798 169.408 12.7186C169.408 16.4822 165.952 18.8962 160.687 18.8962Z" fill="#558B2F"/>
<path d="M155.818 6.04781C155.818 9.47404 153.793 11.9658 150.418 12.9781L153.712 18.5847H149.095L146.125 13.4973H142.399L141.346 18.5847H136.945L140.725 0.415299H148.42C153.118 0.415299 155.818 2.4918 155.818 6.04781ZM146.8 10.1489C149.689 10.1489 151.39 8.85109 151.39 6.43716C151.39 4.67213 150.094 3.84153 147.853 3.84153H144.397L143.074 10.1489H146.8Z" fill="#558B2F"/>
<path d="M138.864 3.78962H128.955L128.145 7.73497H136.92L136.245 11.0055H127.443L126.579 15.2104H136.893L136.164 18.5847H121.53L125.31 0.415299H139.593L138.864 3.78962Z" fill="#558B2F"/>
<path d="M117.035 14.6653L118.142 9.21448H122.138L120.572 16.6899C118.655 18.0915 116.063 18.8962 113.336 18.8962C107.612 18.8962 103.994 15.7036 103.994 11.0055C103.994 4.80191 108.719 0.103825 115.874 0.103825C119.492 0.103825 122.138 1.21994 123.758 3.27049L120.626 5.71038C119.357 4.25683 117.791 3.68579 115.685 3.68579C111.257 3.68579 108.422 6.74863 108.422 10.7459C108.422 13.4713 110.312 15.3142 113.903 15.3142C115.01 15.3142 116.036 15.1066 117.035 14.6653Z" fill="#558B2F"/>
<path d="M101.089 0.415299H105.409L101.629 18.5847H98.0375L90.9905 7.21585L88.6145 18.5847H84.2945L88.0745 0.415299H91.6925L98.7395 11.8101L101.089 0.415299Z" fill="#558B2F"/>
<path d="M80.6597 18.5847L79.7687 14.6913H70.9667L68.5097 18.5847H63.8387L76.0697 0.415299H80.3897L85.0337 18.5847H80.6597ZM72.9917 11.4986H79.0397L77.4467 4.49044L72.9917 11.4986Z" fill="#558B2F"/>
<path d="M63.957 0.415299H68.331L64.551 18.5847H60.177L61.716 11.1872H53.157L51.618 18.5847H47.217L50.997 0.415299H55.398L53.913 7.55328H62.472L63.957 0.415299Z" fill="#558B2F"/>
</svg>
