<svg width="189" height="35" viewBox="0 0 189 35" fill="none" xmlns="http://www.w3.org/2000/svg">
<path d="M4 20L175 13L173.444 20L4 20Z" fill="#CCF0A7"/>
<path d="M177 14L173.182 20.033L169.5 8L180 6.5L177 14Z" fill="#B1D28F"/>
<path d="M180.152 6.27802L169.265 7.9961L181.638 17.0767L180.152 6.27802Z" fill="#CCF0A7"/>
<path d="M34.8856 20C32.9416 20 31.2406 19.6626 29.7826 18.9877C28.3246 18.2955 27.1906 17.3438 26.3806 16.1325C25.5886 14.9039 25.1926 13.485 25.1926 11.8757C25.1926 10.2837 25.4806 8.82149 26.0566 7.48907C26.6506 6.15665 27.4786 5.00592 28.5406 4.03688C29.6026 3.06785 30.8626 2.32377 32.3206 1.80464C33.7786 1.26821 35.3806 1 37.1266 1C38.9446 1 40.5556 1.31148 41.9596 1.93443C43.3636 2.55738 44.4076 3.45719 45.0916 4.63388L40.5016 8.08607C40.1056 7.4112 39.5926 6.89208 38.9626 6.52869C38.3326 6.148 37.5856 5.95765 36.7216 5.95765C35.9656 5.95765 35.2726 6.09608 34.6426 6.37295C34.0306 6.63251 33.4996 7.01321 33.0496 7.51503C32.5996 7.99954 32.2486 8.57924 31.9966 9.2541C31.7446 9.92896 31.6186 10.673 31.6186 11.4863C31.6186 12.1958 31.7806 12.8188 32.1046 13.3552C32.4286 13.8916 32.8786 14.3069 33.4546 14.6011C34.0486 14.8953 34.7326 15.0424 35.5066 15.0424C36.2446 15.0424 36.9646 14.878 37.6666 14.5492C38.3866 14.2204 39.0706 13.684 39.7186 12.9399L43.4716 16.3921C42.3196 17.7418 41.0326 18.6849 39.6106 19.2213C38.2066 19.7404 36.6316 20 34.8856 20Z" fill="white"/>
<path d="M13.348 19.5847L14.995 11.6161L15.697 15.276L10 1.4153H16.399L20.287 10.9413H16.264L24.229 1.4153H30.628L19.207 15.276L21.367 11.6161L19.72 19.5847H13.348Z" fill="white"/>
<path d="M155.687 19.8962C152.609 19.8962 149.693 19.0137 148.1 17.8716L149.882 14.627C151.61 15.847 153.878 16.5219 156.119 16.5219C158.522 16.5219 160.034 15.7172 160.034 14.3934C160.034 11.4863 150.665 13.0437 150.665 7.25546C150.665 3.51776 154.067 1.10382 159.305 1.10382C161.843 1.10382 164.192 1.6489 165.839 2.6612L164.192 5.87978C162.761 4.94535 160.925 4.47814 159.062 4.47814C156.524 4.47814 155.039 5.41256 155.039 6.71038C155.012 9.69535 164.408 8.13797 164.408 13.7186C164.408 17.4822 160.952 19.8962 155.687 19.8962Z" fill="white"/>
<path d="M150.818 7.04781C150.818 10.474 148.793 12.9658 145.418 13.9781L148.712 19.5847H144.095L141.125 14.4973H137.399L136.346 19.5847H131.945L135.725 1.4153H143.42C148.118 1.4153 150.818 3.4918 150.818 7.04781ZM141.8 11.1489C144.689 11.1489 146.39 9.85109 146.39 7.43716C146.39 5.67213 145.094 4.84153 142.853 4.84153H139.397L138.074 11.1489H141.8Z" fill="white"/>
<path d="M133.864 4.78962H123.955L123.145 8.73497H131.92L131.245 12.0055H122.443L121.579 16.2104H131.893L131.164 19.5847H116.53L120.31 1.4153H134.593L133.864 4.78962Z" fill="white"/>
<path d="M112.035 15.6653L113.142 10.2145H117.138L115.572 17.6899C113.655 19.0915 111.063 19.8962 108.336 19.8962C102.612 19.8962 98.9942 16.7035 98.9942 12.0055C98.9942 5.80191 103.719 1.10382 110.874 1.10382C114.492 1.10382 117.138 2.21994 118.758 4.27049L115.626 6.71038C114.357 5.25683 112.791 4.68579 110.685 4.68579C106.257 4.68579 103.422 7.74863 103.422 11.7459C103.422 14.4713 105.312 16.3142 108.903 16.3142C110.01 16.3142 111.036 16.1066 112.035 15.6653Z" fill="white"/>
<path d="M96.0885 1.4153H100.409L96.6285 19.5847H93.0375L85.9905 8.21585L83.6145 19.5847H79.2945L83.0745 1.4153H86.6925L93.7395 12.8101L96.0885 1.4153Z" fill="white"/>
<path d="M75.6597 19.5847L74.7687 15.6913H65.9667L63.5097 19.5847H58.8387L71.0697 1.4153H75.3897L80.0337 19.5847H75.6597ZM67.9917 12.4986H74.0397L72.4467 5.49044L67.9917 12.4986Z" fill="white"/>
<path d="M58.957 1.4153H63.331L59.551 19.5847H55.177L56.716 12.1872H48.157L46.618 19.5847H42.217L45.997 1.4153H50.398L48.913 8.55328H57.472L58.957 1.4153Z" fill="white"/>
</svg>
