<svg width="249" height="46" viewBox="0 0 249 46" fill="none" xmlns="http://www.w3.org/2000/svg">
<path d="M7 25.9896L231.906 16.7829L229.859 25.9896L7 25.9896Z" fill="#CCF0A7"/>
<path d="M234.537 18.0981L229.515 26.033L224.673 10.2067L238.483 8.23383L234.537 18.0981Z" fill="#B1D28F"/>
<path d="M238.682 7.94186L224.363 10.2016L240.638 22.1447L238.682 7.94186Z" fill="#CCF0A7"/>
<path d="M47.622 25.9896C45.0652 25.9896 42.8279 25.5458 40.9103 24.6582C38.9927 23.7478 37.5012 22.4961 36.4359 20.9029C35.3942 19.287 34.8734 17.4208 34.8734 15.3042C34.8734 13.2103 35.2521 11.2872 36.0097 9.5347C36.791 7.78224 37.88 6.26875 39.2768 4.99424C40.6736 3.71972 42.3308 2.74108 44.2484 2.0583C46.166 1.35277 48.273 1 50.5695 1C52.9606 1 55.0794 1.40967 56.926 2.229C58.7726 3.04833 60.1457 4.23181 61.0454 5.77943L55.0084 10.3199C54.4876 9.43228 53.8128 8.74951 52.9842 8.27156C52.1556 7.77086 51.1731 7.52051 50.0368 7.52051C49.0425 7.52051 48.131 7.70258 47.3024 8.06673C46.4975 8.40812 45.7991 8.90882 45.2072 9.56884C44.6154 10.2061 44.1537 10.9685 43.8223 11.8561C43.4908 12.7437 43.3251 13.7224 43.3251 14.7921C43.3251 15.7252 43.5382 16.5445 43.9643 17.2501C44.3904 17.9556 44.9823 18.5018 45.7399 18.8887C46.5211 19.2756 47.4208 19.4691 48.4388 19.4691C49.4094 19.4691 50.3564 19.2529 51.2797 18.8205C52.2267 18.388 53.1263 17.6825 53.9786 16.7038L58.9147 21.2443C57.3995 23.0195 55.7068 24.2599 53.8365 24.9654C51.9899 25.6482 49.9184 25.9896 47.622 25.9896Z" fill="#7CB342"/>
<path d="M19.2949 25.4434L21.4611 14.9628L22.3844 19.7763L14.8914 1.54622H23.3077L28.4213 14.0752H23.1301L33.606 1.54622H42.0223L27.0009 19.7763L29.8418 14.9628L27.6756 25.4434H19.2949Z" fill="#7CB342"/>
<path d="M206.505 25.853C202.457 25.853 198.622 24.6923 196.526 23.1902L198.87 18.9229C201.143 20.5274 204.126 21.415 207.073 21.415C210.234 21.415 212.223 20.3567 212.223 18.6156C212.223 14.7921 199.9 16.8404 199.9 9.22745C199.9 4.31146 204.374 1.13655 211.264 1.13655C214.602 1.13655 217.691 1.85346 219.857 3.18488L217.691 7.41809C215.809 6.18909 213.394 5.57459 210.944 5.57459C207.606 5.57459 205.653 6.80359 205.653 8.51053C205.617 12.4365 217.975 10.3882 217.975 17.728C217.975 22.6781 213.43 25.853 206.505 25.853Z" fill="#558B2F"/>
<path d="M200.101 8.95434C200.101 13.4607 197.437 16.738 192.998 18.0694L197.331 25.4434H191.258L187.352 18.7522H182.451L181.066 25.4434H175.278L180.25 1.54622H190.37C196.549 1.54622 200.101 4.27732 200.101 8.95434ZM188.24 14.3483C192.039 14.3483 194.277 12.6413 194.277 9.46642C194.277 7.14498 192.572 6.05254 189.625 6.05254H185.079L183.339 14.3483H188.24Z" fill="#558B2F"/>
<path d="M177.803 5.98426H164.77L163.705 11.1734H175.246L174.358 15.4748H162.782L161.645 21.0053H175.211L174.252 25.4434H155.005L159.976 1.54622H178.762L177.803 5.98426Z" fill="#558B2F"/>
<path d="M149.092 20.2884L150.548 13.1193H155.804L153.744 22.9512C151.223 24.7947 147.814 25.853 144.227 25.853C136.699 25.853 131.94 21.654 131.94 15.4748C131.94 7.31567 138.155 1.13655 147.565 1.13655C152.324 1.13655 155.804 2.60452 157.935 5.30148L153.815 8.51053C152.146 6.59876 150.087 5.84771 147.317 5.84771C141.493 5.84771 137.764 9.87608 137.764 15.1335C137.764 18.718 140.25 21.1419 144.973 21.1419C146.429 21.1419 147.779 20.8688 149.092 20.2884Z" fill="#558B2F"/>
<path d="M128.119 1.54622H133.801L128.829 25.4434H124.106L114.837 10.4906L111.712 25.4434H106.031L111.002 1.54622H115.761L125.029 16.5332L128.119 1.54622Z" fill="#558B2F"/>
<path d="M101.25 25.4434L100.078 20.3226H88.5012L85.2696 25.4434H79.1261L95.2128 1.54622H100.895L107.003 25.4434H101.25ZM91.1645 16.1235H99.1191L97.0239 6.90601L91.1645 16.1235Z" fill="#558B2F"/>
<path d="M79.2818 1.54622H85.0346L80.063 25.4434H74.3102L76.3343 15.7138H65.0772L63.053 25.4434H57.2646L62.2362 1.54622H68.0246L66.0715 10.9344H77.3286L79.2818 1.54622Z" fill="#558B2F"/>
</svg>
