<svg xmlns="http://www.w3.org/2000/svg" width="15.998" height="15.998" viewBox="0 0 15.998 15.998">
    <path id="prefix__solid_link" fill="#558b2f" d="M10.2 5.792a4.747 4.747 0 0 1 .011 6.705l-.011.012-2.1 2.1a4.749 4.749 0 0 1-6.712-6.717l1.16-1.159a.5.5 0 0 1 .853.331 5.758 5.758 0 0 0 .3 1.647.5.5 0 0 1-.118.519l-.409.409a2.25 2.25 0 1 0 3.161 3.2l2.1-2.1a2.249 2.249 0 0 0 0-3.182 2.341 2.341 0 0 0-.323-.268A.5.5 0 0 1 7.9 6.9a1.245 1.245 0 0 1 .366-.931l.658-.658a.5.5 0 0 1 .643-.054 4.764 4.764 0 0 1 .641.537zm4.4-4.4a4.755 4.755 0 0 0-6.717 0l-2.1 2.1-.002.008a4.75 4.75 0 0 0 .652 7.242.5.5 0 0 0 .643-.054l.658-.658A1.245 1.245 0 0 0 8.1 9.1a.5.5 0 0 0-.217-.4 2.341 2.341 0 0 1-.323-.268 2.249 2.249 0 0 1 0-3.182l2.1-2.1a2.25 2.25 0 1 1 3.161 3.2l-.409.409a.5.5 0 0 0-.118.519 5.758 5.758 0 0 1 .3 1.647.5.5 0 0 0 .853.331L14.608 8.1a4.754 4.754 0 0 0 0-6.717z" data-name="solid link" transform="translate(.001 .001)"/>
</svg>
