<svg width="474" height="121" viewBox="0 0 474 121" fill="none" xmlns="http://www.w3.org/2000/svg">
<path d="M435.812 88.3664L417.645 84.8723C417.257 89.2899 416.153 93.1075 414.342 95.3604C412.532 97.6133 409.247 98.778 406.008 98.778C403.234 98.8571 400.543 97.7998 398.521 95.8369C396.505 93.8996 395.5 90.986 395.503 87.0958V58.4138H429.549V35.2377H395.503V14.1732H370.789V86.6782C370.789 96.9957 373.706 105.268 379.54 111.495C385.373 117.723 394.061 120.842 405.603 120.854C415.453 120.854 423.901 118.042 429.805 112.413C432.18 110.145 434.206 107.514 435.812 104.613C438.345 99.8807 439.97 94.6879 440.6 89.3193L435.812 88.3664Z" fill="#0B0F14"/>
<path d="M196.414 45.6414C192.369 38.2444 186.448 32.1271 179.289 27.9476C172.157 23.6339 163.852 21.4888 154.375 21.5123C145.038 21.5123 136.735 23.6574 129.467 27.9476C122.308 32.1271 116.387 38.2444 112.342 45.6414C108.193 53.1472 106.117 61.6589 106.113 71.1764C106.109 80.6939 108.178 89.2134 112.319 96.7349C116.371 104.115 122.291 110.215 129.444 114.382C136.709 118.695 145.012 120.852 154.352 120.852C163.841 120.852 172.146 118.707 179.266 114.417C186.432 110.244 192.361 104.131 196.414 96.7349C200.566 89.2291 202.642 80.7175 202.642 71.1999C202.642 61.6824 200.566 53.1629 196.414 45.6414ZM175.178 85.5586C173.224 89.5631 170.277 92.9608 166.638 95.4055C162.917 97.6477 158.686 98.8292 154.378 98.8292C150.07 98.8292 145.839 97.6477 142.117 95.4055C138.478 92.9608 135.532 89.5631 133.578 85.5586C131.498 81.2763 130.46 76.2822 130.463 70.5764C130.467 64.8706 131.505 59.8766 133.578 55.5943C135.455 51.5361 138.418 48.1188 142.117 45.7473C145.839 43.5051 150.07 42.3237 154.378 42.3237C158.686 42.3237 162.917 43.5051 166.638 45.7473C170.337 48.1188 173.301 51.5361 175.178 55.5943C177.258 59.8687 178.296 64.8628 178.292 70.5764C178.289 76.2901 177.251 81.2841 175.178 85.5586Z" fill="#0B0F14"/>
<path d="M335.012 82.6172C333.703 87.5897 331.302 91.5505 327.81 94.4994C324.319 97.4484 319.519 98.9229 313.412 98.9229C309.404 98.9249 305.435 98.1052 301.735 96.5112C298.155 94.8131 295.068 92.1768 292.78 88.8642C290.575 85.3741 289.343 81.0839 289.085 75.9938H351.944C352.206 74.1193 352.396 72.2429 352.513 70.3645C352.77 68.3656 352.899 66.3515 352.901 64.3351C352.901 55.4882 351.084 47.9138 347.452 41.6119C344.033 35.2619 338.887 30.0876 332.65 26.7297C326.307 23.2513 318.849 21.5121 310.275 21.5121C301.063 21.5121 293.019 23.7239 286.141 28.1474C279.348 32.4789 273.778 38.5812 269.99 45.8412C266.228 53.2137 264.348 61.4489 264.348 70.5468C264.348 80.7428 266.424 89.6583 270.576 97.2935C274.63 104.701 280.636 110.767 287.895 114.787C295.308 118.831 303.749 120.852 313.219 120.852C324.374 120.852 333.519 118.172 340.654 112.811C347.923 107.446 353.047 100.207 356.026 91.0936L335.012 82.6172ZM296.828 46.4412C300.699 43.6251 305.331 42.143 310.065 42.206C313.404 42.1205 316.722 42.7765 319.794 44.1295C322.457 45.1363 324.763 46.9509 326.41 49.3353C328.161 51.6468 329.121 54.4937 329.137 57.4293C329.124 57.7602 329.056 58.0863 328.938 58.394H289.415C290.713 53.1412 292.939 49.1589 296.828 46.4589V46.4412Z" fill="#0B0F14"/>
<path d="M208.492 118.831L237.562 0.85614H263.831L234.767 118.831H208.492Z" fill="#0B0F14"/>
<path d="M26.2744 23.5195L51.3759 94.4715L77.8154 23.5195H104.09L66.5598 118.812H36.3856L0 23.5195H26.2744Z" fill="#0B0F14"/>
<path d="M462.554 120.854C460.638 120.882 458.751 120.365 457.1 119.36C455.5 118.376 454.175 116.98 453.255 115.308C452.335 113.636 451.852 111.745 451.852 109.822C451.852 107.898 452.335 106.008 453.255 104.336C454.175 102.664 455.5 101.267 457.1 100.284C458.766 99.3044 460.649 98.7894 462.565 98.7894C464.482 98.7894 466.365 99.3044 468.031 100.284C469.62 101.25 470.938 102.626 471.857 104.278C472.775 105.971 473.257 107.878 473.257 109.819C473.257 111.759 472.775 113.667 471.857 115.36C470.945 117.01 469.635 118.389 468.054 119.36C466.39 120.376 464.486 120.893 462.554 120.854ZM462.554 118.254C464.013 118.281 465.45 117.888 466.704 117.119C467.926 116.366 468.937 115.296 469.636 114.016C470.335 112.736 470.698 111.289 470.69 109.819C470.713 108.336 470.351 106.873 469.642 105.584C468.94 104.329 467.936 103.284 466.727 102.548C465.467 101.794 464.037 101.394 462.581 101.389C461.124 101.384 459.692 101.774 458.426 102.519C457.23 103.262 456.235 104.306 455.534 105.554C454.447 107.483 454.141 109.778 454.683 111.939C455.224 114.101 456.57 115.954 458.426 117.095C459.674 117.862 461.102 118.259 462.554 118.242V118.254ZM462.634 115.178C461.714 115.158 460.816 114.891 460.026 114.403C459.237 113.916 458.584 113.225 458.131 112.397C457.678 111.57 457.442 110.636 457.445 109.685C457.448 108.735 457.69 107.802 458.147 106.978C458.591 106.197 459.233 105.556 460.003 105.125C460.771 104.683 461.636 104.454 462.514 104.46C463.612 104.423 464.693 104.742 465.606 105.372C466.495 106.06 467.089 107.079 467.262 108.213L465.11 108.872C465.025 108.227 464.72 107.635 464.251 107.201C463.777 106.779 463.168 106.553 462.543 106.566C461.831 106.576 461.148 106.861 460.63 107.366C460.163 107.799 459.834 108.368 459.685 108.997C459.535 109.627 459.573 110.288 459.792 110.895C460.011 111.502 460.402 112.027 460.914 112.402C461.426 112.776 462.035 112.983 462.662 112.995C463.047 113.025 463.433 112.968 463.795 112.829C464.157 112.69 464.485 112.472 464.757 112.189C465.229 111.641 465.529 110.958 465.617 110.231L467.689 111.019C467.424 112.229 466.78 113.314 465.856 114.107C464.934 114.837 463.795 115.212 462.634 115.166V115.178Z" fill="#0B0F14"/>
</svg>
