<svg width="220" height="47" viewBox="0 0 220 47" fill="none" xmlns="http://www.w3.org/2000/svg">
<g clip-path="url(#clip0_1_39)">
<path d="M-1 25.9601L208.727 17.5011L206.818 25.9601L-1 25.9601Z" fill="#CCF0A7"/>
<path d="M211.18 18.7096L206.497 26L201.981 11.459L214.859 9.64635L211.18 18.7096Z" fill="#B1D28F"/>
<path d="M215.046 9.3781L201.693 11.4543L216.869 22.4275L215.046 9.3781Z" fill="#CCF0A7"/>
<path d="M36.8803 25.9601C34.4961 25.9601 32.4098 25.5524 30.6216 24.7368C28.8334 23.9004 27.4426 22.7503 26.4492 21.2866C25.4778 19.8019 24.9921 18.0872 24.9921 16.1425C24.9921 14.2187 25.3454 12.4517 26.0518 10.8416C26.7803 9.23144 27.7958 7.84086 29.0984 6.66986C30.4009 5.49885 31.9462 4.59968 33.7344 3.97235C35.5226 3.32412 37.4874 3 39.6289 3C41.8586 3 43.8345 3.3764 45.5564 4.12919C47.2784 4.88198 48.5588 5.96934 49.3977 7.39128L43.7682 11.563C43.2825 10.7475 42.6534 10.1201 41.8807 9.68102C41.108 9.22098 40.1918 8.99096 39.1321 8.99096C38.2049 8.99096 37.355 9.15825 36.5823 9.49282C35.8317 9.80649 35.1804 10.2665 34.6285 10.8729C34.0766 11.4584 33.6461 12.159 33.3371 12.9745C33.028 13.79 32.8734 14.6892 32.8734 15.672C32.8734 16.5293 33.0721 17.2821 33.4695 17.9304C33.8669 18.5786 34.4188 19.0805 35.1253 19.4359C35.8538 19.7914 36.6927 19.9692 37.642 19.9692C38.5471 19.9692 39.4302 19.7705 40.2912 19.3732C41.1742 18.9759 42.0131 18.3277 42.8079 17.4285L47.4108 21.6002C45.9979 23.2313 44.4195 24.3709 42.6754 25.0191C40.9535 25.6465 39.0218 25.9601 36.8803 25.9601Z" fill="#B9D49C"/>
<path d="M10.4651 25.4583L12.4851 15.8288L13.3461 20.2515L6.35884 3.50186H14.207L18.9756 15.0133H14.0415L23.8103 3.50186H31.6585L17.651 20.2515L20.3002 15.8288L18.2802 25.4583H10.4651Z" fill="#B9D49C"/>
<path d="M185.04 25.8346C181.265 25.8346 177.689 24.7682 175.735 23.3881L177.921 19.4673C180.04 20.9415 182.822 21.757 185.57 21.757C188.517 21.757 190.372 20.7847 190.372 19.185C190.372 15.672 178.881 17.5539 178.881 10.5593C178.881 6.04252 183.053 3.12545 189.478 3.12545C192.59 3.12545 195.471 3.78414 197.491 5.00743L195.471 8.89685C193.716 7.76766 191.465 7.20307 189.18 7.20307C186.067 7.20307 184.245 8.33226 184.245 9.90057C184.212 13.5077 195.736 11.6257 195.736 18.3695C195.736 22.9176 191.498 25.8346 185.04 25.8346Z" fill="#B9D49C"/>
<path d="M179.068 10.3083C179.068 14.4487 176.584 17.4599 172.445 18.6831L176.485 25.4583H170.822L167.18 19.3105H162.61L161.318 25.4583H155.921L160.557 3.50186H169.994C175.756 3.50186 179.068 6.01117 179.068 10.3083ZM168.008 15.2642C171.551 15.2642 173.637 13.6959 173.637 10.7788C173.637 8.64594 172.048 7.64221 169.299 7.64221H165.06L163.438 15.2642H168.008Z" fill="#B9D49C"/>
<path d="M158.275 7.57948H146.122L145.129 12.3472H155.891L155.063 16.2993H144.268L143.208 21.3807H155.858L154.964 25.4583H137.015L141.652 3.50186H159.169L158.275 7.57948Z" fill="#B9D49C"/>
<path d="M131.502 20.7219L132.86 14.135H137.761L135.84 23.1685C133.489 24.8623 130.31 25.8346 126.966 25.8346C119.945 25.8346 115.508 21.9766 115.508 16.2993C115.508 8.80275 121.303 3.12545 130.078 3.12545C134.516 3.12545 137.761 4.4742 139.748 6.95214L135.907 9.90057C134.35 8.14406 132.43 7.454 129.847 7.454C124.416 7.454 120.939 11.1552 120.939 15.9856C120.939 19.2791 123.257 21.5061 127.661 21.5061C129.019 21.5061 130.277 21.2552 131.502 20.7219Z" fill="#B9D49C"/>
<path d="M111.944 3.50186H117.243L112.607 25.4583H108.202L99.5593 11.7198L96.6452 25.4583H91.3468L95.9829 3.50186H100.42L109.063 17.2717L111.944 3.50186Z" fill="#B9D49C"/>
<path d="M86.8887 25.4583L85.7959 20.7533H75.0005L71.9871 25.4583H66.2582L81.2592 3.50186H86.5576L92.2533 25.4583H86.8887ZM77.4841 16.8953H84.9018L82.9481 8.42637L77.4841 16.8953Z" fill="#B9D49C"/>
<path d="M66.4034 3.50186H71.768L67.1319 25.4583H61.7673L63.6548 16.5189H53.1574L51.2699 25.4583H45.8722L50.5082 3.50186H55.906L54.0846 12.1276H64.582L66.4034 3.50186Z" fill="#B9D49C"/>
</g>
<defs>
<clipPath id="clip0_1_39">
<rect width="219.696" height="45.92" fill="white" transform="translate(0 0.5)"/>
</clipPath>
</defs>
</svg>
